<svg width="54" height="54" viewBox="0 0 54 54" fill="none" xmlns="http://www.w3.org/2000/svg">
<path fill-rule="evenodd" clip-rule="evenodd" d="M35.6625 5.62634C37.0823 5.62634 38.4998 5.82659 39.8475 6.27884C48.1523 8.97884 51.1448 18.0913 48.645 26.0563C47.2275 30.1266 44.91 33.8414 41.8748 36.8766C37.53 41.0841 32.7623 44.8191 27.63 48.0366L27.0675 48.3764L26.4825 48.0141C21.3323 44.8191 16.5375 41.0841 12.1523 36.8541C9.13729 33.8189 6.81754 30.1266 5.37754 26.0563C2.83504 18.0913 5.82754 8.97884 14.2223 6.23159C14.8748 6.00659 15.5475 5.84909 16.2225 5.76134H16.4925C17.1248 5.66909 17.7525 5.62634 18.3825 5.62634H18.63C20.0475 5.66909 21.42 5.91659 22.7498 6.36884H22.8825C22.9725 6.41159 23.04 6.45884 23.085 6.50159C23.5823 6.66134 24.0525 6.84134 24.5025 7.08884L25.3575 7.47134C25.5641 7.58152 25.796 7.74989 25.9964 7.89539C26.1234 7.98759 26.2378 8.0706 26.325 8.12384C26.3617 8.1455 26.3991 8.16728 26.4367 8.18924C26.6296 8.30186 26.8306 8.41917 27 8.54909C29.4998 6.63884 32.535 5.60384 35.6625 5.62634ZM41.6475 21.8263C42.57 21.8016 43.3575 21.0613 43.425 20.1141V19.8463C43.4925 16.6941 41.5823 13.8388 38.6776 12.7363C37.7551 12.4191 36.7426 12.9163 36.4051 13.8613C36.0901 14.8063 36.5851 15.8413 37.5301 16.1766C38.9723 16.7166 39.9376 18.1363 39.9376 19.7091V19.7788C39.8948 20.2941 40.0501 20.7913 40.3651 21.1738C40.68 21.5563 41.1525 21.7791 41.6475 21.8263Z" fill="#4F95FF"/>
</svg>
