<svg width="54" height="54" viewBox="0 0 54 54" fill="none" xmlns="http://www.w3.org/2000/svg">
<path d="M40.3175 32.22C39.7347 32.7847 39.467 33.6015 39.5997 34.4025L41.6 45.4725C41.7687 46.4107 41.3727 47.3603 40.5875 47.9025C39.818 48.465 38.7942 48.5325 37.955 48.0825L27.9897 42.885C27.6432 42.7005 27.2585 42.6015 26.8647 42.5903H26.255C26.0435 42.6218 25.8365 42.6892 25.6475 42.7927L15.68 48.015C15.1872 48.2625 14.6292 48.3503 14.0825 48.2625C12.7505 48.0105 11.8617 46.7415 12.08 45.4028L14.0825 34.3328C14.2152 33.525 13.9475 32.7037 13.3647 32.13L5.23997 24.255C4.56047 23.5957 4.32422 22.6058 4.63472 21.7125C4.93622 20.8215 5.70572 20.1713 6.63497 20.025L17.8175 18.4028C18.668 18.315 19.415 17.7975 19.7975 17.0325L24.725 6.93C24.842 6.705 24.9927 6.498 25.175 6.3225L25.3775 6.165C25.4832 6.048 25.6047 5.95125 25.7397 5.8725L25.985 5.7825L26.3675 5.625H27.3147C28.1607 5.71275 28.9055 6.219 29.2947 6.975L34.2875 17.0325C34.6475 17.7683 35.3472 18.279 36.155 18.4028L47.3375 20.025C48.2825 20.16 49.0722 20.8125 49.385 21.7125C49.6797 22.6147 49.4255 23.6047 48.7325 24.255L40.3175 32.22Z" fill="#4F95FF"/>
</svg>
