<svg width="56" height="56" viewBox="0 0 56 56" fill="none" xmlns="http://www.w3.org/2000/svg">
<rect width="56" height="56" rx="5.33333" fill="#E4F8EA"/>
<g clip-path="url(#clip0_1232_3589)">
<path fill-rule="evenodd" clip-rule="evenodd" d="M10.9936 42.8735V29.2915C10.385 29.5258 9.81551 29.5305 9.34208 29.3696C8.97333 29.2446 8.66083 29.0212 8.43192 28.7329C8.2038 28.4438 8.0577 28.093 8.01317 27.7055C7.94598 27.1055 8.12567 26.4266 8.63739 25.7891C8.66395 25.7579 8.69208 25.7274 8.72645 25.7008L23.5624 14.1204C23.7546 13.9438 24.0507 13.9251 24.264 14.0915L37.8366 24.643C36.7827 25.4258 35.7218 25.9383 34.6593 26.2422C34.0796 26.4079 33.4944 26.5149 32.9038 26.5719C29.8108 24.0438 24.7999 20.086 24.0304 19.4868C22.8366 20.3938 12.4491 28.3922 12.4491 28.7297V42.879L10.9936 42.8735ZM36.871 35.0141C37.4265 35.3344 37.7874 35.6001 38.2179 36.0743C39.3335 34.2782 40.5444 33.2837 42.1194 31.8712L42.2725 31.8118H43.996C41.6858 34.3782 39.8944 36.4938 38.2905 39.5876C37.4554 37.8024 36.7108 36.5696 35.046 35.4266L36.871 35.0141ZM47.9874 28.9969C48.2272 38.1368 44.9897 43.029 39.5225 45.0235L39.521 45.0227L39.5194 45.0235C34.053 43.029 30.8147 38.1368 31.0546 28.9969C34.0054 29.1532 37.246 28.3391 39.5194 26.3758C42.0819 28.3493 44.7647 29.1672 47.9874 28.9969ZM46.4343 30.2266C46.6304 37.6899 43.9858 41.6844 39.5225 43.3133L39.521 43.3126L39.5194 43.3133C35.0561 41.6844 32.4124 37.6899 32.6077 30.2266C35.0171 30.354 37.6632 29.6891 39.5194 28.086C41.6124 29.6977 43.803 30.3657 46.4343 30.2266ZM24.4694 28.4571V33.1344H28.6663V33.1212C28.6663 31.8321 28.1382 30.6594 27.2882 29.8094C26.5468 29.068 25.5616 28.5719 24.4694 28.4571ZM24.4694 34.1227V40.3258H28.6663V34.1227H24.4694ZM23.4819 40.3235V34.1227H19.285V40.3258H23.4819V40.3235ZM23.4819 33.1344V28.4571C22.3866 28.5743 21.4038 29.068 20.6632 29.8094C19.8132 30.6594 19.285 31.8321 19.285 33.1212V33.1344H23.4819ZM17.2546 42.3852H30.6944V43.3727H17.2546V42.3852ZM23.9757 27.443C25.5382 27.443 26.9577 28.0829 27.985 29.1102C29.0147 30.1391 29.6515 31.5587 29.6515 33.1188V41.3087H18.2968V33.1188C18.2968 31.5563 18.9366 30.1368 19.964 29.1102C20.9936 28.0829 22.4132 27.443 23.9757 27.443ZM32.3796 14.9001L36.8436 15.0821V21.1118L32.3796 18.1657V14.9001Z" fill="#26C870"/>
</g>
<defs>
<clipPath id="clip0_1232_3589">
<rect width="40" height="31.0469" fill="white" transform="translate(8 13.9766)"/>
</clipPath>
</defs>
</svg>
