<svg width="51" height="46" viewBox="0 0 51 46" fill="none" xmlns="http://www.w3.org/2000/svg">
<path fill-rule="evenodd" clip-rule="evenodd" d="M21.0865 41.1618C20.7822 41.3036 20.5088 41.504 20.282 41.7514C20.0552 41.9989 19.8793 42.2886 19.7645 42.6041C19.6497 42.9196 19.5981 43.2545 19.6128 43.5899C19.6275 43.9253 19.7081 44.2545 19.8501 44.5587L20.5222 46H26.163L24.4835 42.3982C24.3417 42.0939 24.1413 41.8205 23.8938 41.5937C23.6463 41.3669 23.3566 41.191 23.0411 41.0762C22.7257 40.9614 22.3907 40.9098 22.0553 40.9245C21.7199 40.9392 21.3907 41.0198 21.0865 41.1618ZM11.4359 38.611C12.7914 41.5189 14.8026 44.0424 17.2837 46H10.0675C8.78061 44.407 7.68159 42.6536 6.80265 40.7715C6.39724 39.9047 6.04527 39.0138 5.74874 38.1039C5.64331 37.7845 5.60194 37.4476 5.62699 37.1122C5.65204 36.7769 5.74303 36.4497 5.89473 36.1496C6.04643 35.8495 6.25586 35.5823 6.51102 35.3632C6.76619 35.1442 7.06207 34.9777 7.38171 34.8732C7.70136 34.7687 8.03847 34.7283 8.37374 34.7544C8.70902 34.7804 9.03586 34.8724 9.33553 35.0249C9.6352 35.1775 9.90182 35.3878 10.1201 35.6436C10.3384 35.8994 10.504 36.1958 10.6076 36.5157C10.8412 37.2302 11.1178 37.9299 11.4359 38.611ZM51 44.4624C50.6384 44.9897 50.2574 45.5026 49.8582 46H42.6618C45.2645 43.9364 47.3432 41.252 48.6879 38.1622L44.5587 40.0877C43.9443 40.3742 43.2412 40.4049 42.6042 40.173C41.9671 39.9411 41.4483 39.4657 41.1618 38.8513C40.8753 38.2369 40.8446 37.5338 41.0765 36.8968C41.3083 36.2598 41.7837 35.7409 42.3982 35.4544L51 31.4433V44.4624ZM51 15.4472C48.3787 11.6605 44.7625 8.63183 40.5143 6.7192L43.7969 5.18847C44.4113 4.90197 44.8868 4.38312 45.1186 3.74608C45.3505 3.10904 45.3198 2.40599 45.0333 1.79158C44.7468 1.17717 44.2279 0.701737 43.5909 0.469874C42.9539 0.23801 42.2508 0.268706 41.6364 0.55521L32.3699 4.87626C32.2258 4.96113 32.0909 5.06061 31.9673 5.17314L31.9533 5.18344C31.6982 5.37091 31.4814 5.60558 31.3148 5.87472L31.2837 5.92656C31.1334 6.18273 31.0301 6.46374 30.9788 6.75629C30.9756 6.77242 30.9688 6.78667 30.962 6.80089C30.9546 6.81623 30.9473 6.83154 30.9446 6.84915C30.9421 6.866 30.9443 6.88206 30.9466 6.89815C30.9487 6.91319 30.9509 6.92826 30.9491 6.94398C30.9216 7.31667 30.9656 7.69117 31.0789 8.04727C31.091 8.08079 31.0963 8.11499 31.1016 8.14912C31.1082 8.19101 31.1147 8.2328 31.1335 8.27315L35.4546 17.5397C35.7411 18.1541 36.2599 18.6295 36.8969 18.8614C37.534 19.0932 38.237 19.0625 38.8514 18.776C39.4659 18.4895 39.9413 17.9707 40.1731 17.3337C40.405 16.6966 40.3743 15.9936 40.0878 15.3791L38.1618 11.2489C42.7226 13.2342 46.4002 16.8184 48.5019 21.3267C48.8201 22.0078 49.0967 22.7075 49.3303 23.4221C49.5412 24.0661 49.999 24.6001 50.6032 24.907C50.7316 24.9722 50.8643 25.026 51 25.0684V15.4472ZM15.3792 19.8501L11.2499 21.7756C13.2347 17.2149 16.8187 13.5374 21.3269 11.4359C22.007 11.1167 22.7065 10.8403 23.421 10.6081C23.7403 10.5039 24.0359 10.3378 24.291 10.1194C24.5461 9.90094 24.7556 9.6344 24.9077 9.33497C25.0597 9.03554 25.1513 8.70909 25.1772 8.37426C25.2032 8.03944 25.1629 7.70278 25.0586 7.38353C24.9544 7.06428 24.7884 6.76867 24.5699 6.5136C24.3515 6.25852 24.085 6.04897 23.7855 5.8969C23.4861 5.74484 23.1596 5.65324 22.8248 5.62733C22.49 5.60143 22.1533 5.64173 21.8341 5.74593C20.9242 6.04369 20.0333 6.39658 19.1663 6.80263C13.6399 9.38329 9.22311 13.8614 6.7189 19.4229L5.1885 16.141C4.902 15.5266 4.38315 15.0511 3.74611 14.8193C3.10907 14.5874 2.40602 14.6181 1.79161 14.9046C1.1772 15.1911 0.701767 15.7099 0.469903 16.347C0.238039 16.984 0.268736 17.6871 0.555239 18.3015L4.87629 27.568C4.96226 27.7143 5.06327 27.8513 5.17769 27.9766L5.17957 27.9792C5.36875 28.238 5.60639 28.4577 5.8793 28.6259L5.92401 28.6527C6.1809 28.804 6.4629 28.9078 6.75654 28.9593C6.77286 28.9625 6.7873 28.9694 6.80174 28.9763C6.81734 28.9837 6.83292 28.9911 6.85086 28.994C6.874 28.9974 6.89638 28.996 6.9188 28.9946C6.93835 28.9934 6.95793 28.9922 6.97804 28.9942C7.14627 29.012 7.3159 29.0123 7.4842 28.9951C7.71167 28.9719 7.93493 28.918 8.14788 28.8347C8.16738 28.8268 8.18745 28.8239 8.20748 28.8209L8.2075 28.8209C8.22971 28.8176 8.25188 28.8144 8.27321 28.8044L17.5397 24.4834C18.1541 24.1969 18.6296 23.678 18.8614 23.041C19.0933 22.404 19.0626 21.7009 18.7761 21.0865C18.4896 20.4721 17.9708 19.9967 17.3337 19.7648C16.6967 19.5329 15.9936 19.5636 15.3792 19.8501Z" fill="#EDF3F5"/>
</svg>
