<svg width="25" height="26" viewBox="0 0 25 26" fill="none" xmlns="http://www.w3.org/2000/svg">
<path d="M4.75983 23.5388C2.47962 21.2586 2.50401 17.5239 4.81419 15.2137L13.3797 6.64815C14.6775 5.35039 16.7761 5.33669 18.057 6.61761C19.3379 7.89853 19.3242 9.99712 18.0264 11.2949L9.46092 19.8604C9.17409 20.1472 8.71314 20.1502 8.43003 19.8671C8.14693 19.584 8.14994 19.1231 8.43676 18.8363L17.0023 10.2707C17.7286 9.5444 17.7355 8.3714 17.0194 7.65523C16.3032 6.93905 15.1295 6.94671 14.4039 7.6723L5.83834 16.2378C4.10033 17.9758 4.08199 20.7857 5.79744 22.5012C7.5129 24.2166 10.3228 24.1983 12.0608 22.4603L20.6263 13.8948C23.3767 11.1443 23.405 6.69902 20.691 3.98502C17.977 1.27101 13.5302 1.29931 10.7806 4.049L2.21503 12.6145C1.92821 12.9013 1.46725 12.9044 1.18415 12.6213C0.901044 12.3381 0.904055 11.8772 1.19088 11.5904L9.7564 3.02485C13.0783 -0.297009 18.4492 -0.332082 21.7279 2.94667C25.0067 6.22542 24.9716 11.5963 21.6497 14.9182L13.0842 23.4837C10.774 25.7939 7.0393 25.8183 4.75909 23.5381L4.75983 23.5388Z" fill="#4F95FF"/>
</svg>
