<svg width="13" height="10" viewBox="0 0 13 10" fill="none" xmlns="http://www.w3.org/2000/svg">
<path d="M10.2994 0.664927C9.41382 0.729812 8.74169 1.46745 8.74169 2.32689C8.74169 2.44699 8.84224 2.54374 8.96573 2.54374H9.28151C9.40558 2.54374 9.50555 2.44642 9.50555 2.32689V2.31779C9.50555 1.85961 9.85132 1.45721 10.3217 1.40598C10.8786 1.34508 11.3526 1.76683 11.3526 2.29388V4.62348C11.3526 4.78341 11.2191 4.91261 11.0538 4.91261H1.04958C0.842007 4.91261 0.673828 5.0754 0.673828 5.27631V6.47896C0.673828 7.88252 1.84931 9.02029 3.29941 9.02029H9.62374C11.0009 9.02029 12.117 7.93944 12.117 6.60702V2.29388C12.117 1.35134 11.2879 0.592643 10.2988 0.664927H10.2994Z" fill="#A7A7A7"/>
<path d="M9.12347 3.40705C9.18815 3.40705 9.24107 3.35583 9.24107 3.29322V3.04108C9.24107 2.97847 9.18815 2.92725 9.12347 2.92725C9.05878 2.92725 9.00586 2.97847 9.00586 3.04108V3.29322C9.00586 3.35583 9.05878 3.40705 9.12347 3.40705Z" fill="#A7A7A7"/>
<path d="M9.00586 3.8567C9.00586 3.9193 9.05878 3.97053 9.12347 3.97053C9.18815 3.97053 9.24107 3.9193 9.24107 3.8567V3.60456C9.24107 3.54195 9.18815 3.49072 9.12347 3.49072C9.05878 3.49072 9.00586 3.54195 9.00586 3.60456V3.8567Z" fill="#A7A7A7"/>
<path d="M9.00586 4.41968C9.00586 4.48229 9.05878 4.53352 9.12347 4.53352C9.18815 4.53352 9.24107 4.48229 9.24107 4.41968V4.16754C9.24107 4.10494 9.18815 4.05371 9.12347 4.05371C9.05878 4.05371 9.00586 4.10494 9.00586 4.16754V4.41968Z" fill="#A7A7A7"/>
<path d="M8.55787 3.25661C8.57493 3.26458 8.59257 3.26856 8.60962 3.26856C8.65314 3.26856 8.69489 3.24523 8.71547 3.20481L8.83072 2.97829C8.85954 2.92194 8.83543 2.85364 8.77721 2.82575C8.719 2.79786 8.64843 2.8212 8.61962 2.87754L8.50436 3.10407C8.47555 3.16042 8.49966 3.22872 8.55787 3.25661Z" fill="#A7A7A7"/>
<path d="M8.30006 3.76149C8.31653 3.76946 8.33476 3.77344 8.35181 3.77344C8.39532 3.77344 8.43708 3.75011 8.45766 3.7097L8.57291 3.48317C8.60173 3.42682 8.57762 3.35852 8.5194 3.33063C8.46118 3.30274 8.39062 3.32608 8.36181 3.38243L8.24655 3.60896C8.21774 3.6653 8.24185 3.7336 8.30006 3.76149Z" fill="#A7A7A7"/>
<path d="M8.0442 4.26637C8.06067 4.27434 8.0789 4.27833 8.09595 4.27833C8.13946 4.27833 8.18122 4.25499 8.2018 4.21458L8.31705 3.98805C8.34587 3.9317 8.32176 3.8634 8.26354 3.83552C8.20532 3.80763 8.13476 3.83096 8.10595 3.88731L7.99069 4.11384C7.96188 4.17019 7.98599 4.23849 8.0442 4.26637Z" fill="#A7A7A7"/>
<path d="M9.6432 2.87754C9.61439 2.8212 9.54382 2.79786 9.48561 2.82575C9.42739 2.85364 9.40328 2.92194 9.4321 2.97829L9.54735 3.20481C9.56793 3.24523 9.60968 3.26856 9.6532 3.26856C9.67084 3.26856 9.68848 3.26458 9.70495 3.25661C9.76316 3.22872 9.78727 3.16042 9.75846 3.10407L9.6432 2.87754Z" fill="#A7A7A7"/>
<path d="M9.90297 3.38243C9.87415 3.32608 9.80359 3.30274 9.74537 3.33063C9.68716 3.35852 9.66305 3.42682 9.69186 3.48317L9.80712 3.7097C9.8277 3.75011 9.86945 3.77344 9.91297 3.77344C9.93061 3.77344 9.94825 3.76946 9.96471 3.76149C10.0229 3.7336 10.047 3.6653 10.0182 3.60896L9.90297 3.38243Z" fill="#A7A7A7"/>
<path d="M9.94772 3.98805L10.063 4.21458C10.0836 4.25499 10.1253 4.27833 10.1688 4.27833C10.1865 4.27833 10.2041 4.27434 10.2206 4.26637C10.2788 4.23849 10.3029 4.17019 10.2741 4.11384L10.1588 3.88731C10.13 3.83096 10.0594 3.80763 10.0012 3.83552C9.94302 3.8634 9.91891 3.9317 9.94772 3.98805Z" fill="#A7A7A7"/>
</svg>
