<svg width="15" height="9" viewBox="0 0 15 9" fill="none" xmlns="http://www.w3.org/2000/svg">
<path d="M1.85413 1.81785C1.85413 1.33027 1.43825 0.933594 0.927064 0.933594C0.415879 0.933594 0 1.33027 0 1.81785V5.02706C0 5.02706 0 5.02706 0 5.02982V5.78736C0 5.78736 0 5.78736 0 5.79011V7.86164C0 8.34922 0.415879 8.74589 0.927064 8.74589C1.43825 8.74589 1.85413 8.34922 1.85413 7.86164V6.95535H5.2938V3.86183H1.85413V1.81785Z" fill="#A7A7A7"/>
<path d="M14.4364 5.0298C14.4364 4.38521 13.8877 3.86182 13.209 3.86182H12.0566V6.95533H12.5823V7.86163C12.5823 8.34921 12.9981 8.74588 13.5093 8.74588C14.0205 8.74588 14.4364 8.34921 14.4364 7.86163V5.79285C14.4364 5.79285 14.4364 5.7901 14.4364 5.78734V5.0298Z" fill="#A7A7A7"/>
<path d="M5.87109 6.95533V7.08205C5.87109 7.55861 6.27831 7.94427 6.77794 7.94427H10.5728C11.0725 7.94427 11.4797 7.55861 11.4797 7.08205V3.86182H5.87109V6.95533Z" fill="#A7A7A7"/>
</svg>
