<svg width="15" height="21" viewBox="0 0 15 21" fill="none" xmlns="http://www.w3.org/2000/svg">
<path d="M14.6759 10.589L8.40874 20.5068C8.31155 20.6588 8.17679 20.7831 8.01756 20.8675C7.85834 20.9519 7.68004 20.9936 7.5 20.9885C7.40311 21.0038 7.30443 21.0038 7.20753 20.9885C6.98355 20.9232 6.7878 20.7846 6.65151 20.5948C6.51521 20.405 6.4462 20.1749 6.45548 19.9412V13.6576H2.08936C1.71538 13.6576 1.34824 13.557 1.02628 13.3663C0.70431 13.1755 0.43932 12.9016 0.25897 12.5731C0.0786193 12.2446 -0.0104776 11.8736 0.000981049 11.4988C0.0124397 11.124 0.124034 10.7592 0.324112 10.4424L6.59126 0.524685C6.70838 0.320748 6.8906 0.162305 7.10852 0.0749052C7.32645 -0.0124943 7.56738 -0.0237559 7.79247 0.0429365C8.01646 0.108238 8.2122 0.246834 8.34849 0.436636C8.48479 0.626438 8.5538 0.856521 8.54452 1.09022V7.37389H12.9106C13.2846 7.37384 13.6518 7.47444 13.9737 7.6652C14.2957 7.85596 14.5607 8.12987 14.741 8.45836C14.9214 8.78684 15.0105 9.15784 14.999 9.53263C14.9876 9.90742 14.876 10.2723 14.6759 10.589Z" fill="#4F95FF"/>
</svg>
