<svg width="7" height="11" viewBox="0 0 7 11" fill="none" xmlns="http://www.w3.org/2000/svg">
<path d="M6.8532 5.54009L4.07676 9.92225C4.0337 9.98943 3.97401 10.0443 3.90346 10.0816C3.83292 10.1189 3.75394 10.1373 3.67418 10.1351C3.63125 10.1419 3.58753 10.1419 3.54461 10.1351C3.44538 10.1063 3.35866 10.045 3.29828 9.96115C3.2379 9.87729 3.20733 9.77563 3.21144 9.67237V6.89592H1.27718C1.1115 6.89595 0.948855 6.8515 0.806219 6.76721C0.663583 6.68292 0.546188 6.56189 0.46629 6.41675C0.386392 6.27161 0.346921 6.10769 0.351997 5.94209C0.357073 5.77649 0.406511 5.61529 0.495149 5.47531L3.27159 1.09316C3.32348 1.00305 3.4042 0.933042 3.50075 0.894425C3.59729 0.855808 3.70403 0.850832 3.80374 0.8803C3.90297 0.909153 3.98969 0.970392 4.05007 1.05426C4.11045 1.13812 4.14103 1.23978 4.13692 1.34304V4.11948H6.07117C6.23685 4.11946 6.3995 4.16391 6.54213 4.2482C6.68477 4.33248 6.80216 4.45351 6.88206 4.59865C6.96196 4.74379 7.00143 4.90772 6.99635 5.07332C6.99128 5.23892 6.94184 5.40012 6.8532 5.54009Z" fill="#242426"/>
</svg>
