<svg width="32" height="31" viewBox="0 0 32 31" fill="none" xmlns="http://www.w3.org/2000/svg">
<circle cx="15.6641" cy="15.5312" r="15.4688" fill="#00B140"/>
<path fill-rule="evenodd" clip-rule="evenodd" d="M20.1758 11.6641V10.375H21.4648V11.6641H22.7539V12.9531H21.4648V14.2422H20.1758V12.9531H18.8867V11.6641H20.1758ZM12.4008 11.5644C12.4465 11.5009 12.4972 11.4232 12.5619 11.3184C12.5981 11.2597 12.7303 11.041 12.7519 11.0056C13.2862 10.1316 13.6746 9.73047 14.375 9.73047H17.5977V11.0195H14.375C14.3191 11.0195 14.1433 11.2011 13.8518 11.678C13.8331 11.7086 13.6989 11.9306 13.6588 11.9954C13.5796 12.1238 13.5137 12.2247 13.4473 12.3171C13.1584 12.7188 12.8696 12.9531 12.4414 12.9531H10.5078C10.1518 12.9531 9.86328 13.2417 9.86328 13.5977V19.3984C9.86328 19.7544 10.1518 20.043 10.5078 20.043H20.8203C21.1763 20.043 21.4648 19.7544 21.4648 19.3984V15.5312H22.7539V19.3984C22.7539 20.4663 21.8882 21.332 20.8203 21.332H10.5078C9.43992 21.332 8.57422 20.4663 8.57422 19.3984V13.5977C8.57422 12.5298 9.43992 11.6641 10.5078 11.6641H12.3229C12.3444 11.6395 12.3707 11.6063 12.4008 11.5644ZM15.6641 19.3984C13.8842 19.3984 12.4414 17.9556 12.4414 16.1758C12.4414 14.396 13.8842 12.9531 15.6641 12.9531C17.4439 12.9531 18.8867 14.396 18.8867 16.1758C18.8867 17.9556 17.4439 19.3984 15.6641 19.3984ZM15.6641 18.1094C16.732 18.1094 17.5977 17.2437 17.5977 16.1758C17.5977 15.1079 16.732 14.2422 15.6641 14.2422C14.5962 14.2422 13.7305 15.1079 13.7305 16.1758C13.7305 17.2437 14.5962 18.1094 15.6641 18.1094Z" fill="white"/>
</svg>
