<svg width="11" height="9" viewBox="0 0 11 9" fill="none" xmlns="http://www.w3.org/2000/svg">
<g clip-path="url(#clip0_254_2941)">
<path d="M10.5302 2.84602H9.90532C9.76069 2.84602 9.64388 2.96185 9.64388 3.10525V3.313L9.06165 1.58298C8.88736 1.06269 8.39784 0.713379 7.84528 0.713379H3.05769C2.50513 0.713379 2.01561 1.06269 1.84132 1.58298L1.25909 3.313V3.10525C1.25909 2.96185 1.14227 2.84602 0.997646 2.84602H0.372773C0.228144 2.84602 0.111328 2.96185 0.111328 3.10525V3.36815C0.111328 3.51156 0.228144 3.62738 0.372773 3.62738H1.10704C0.600842 3.74688 0.222581 4.19547 0.222581 4.73415V6.77303C0.222581 7.26391 0.537799 7.68124 0.977249 7.84119V8.5343C0.977249 8.77331 1.17194 8.96635 1.41299 8.96635H2.35864C2.59969 8.96635 2.79439 8.77331 2.79439 8.5343V7.91289H8.10858V8.5343C8.10858 8.77331 8.30328 8.96635 8.54432 8.96635H9.48998C9.73103 8.96635 9.92572 8.77331 9.92572 8.5343V7.84119C10.3652 7.68124 10.6804 7.26391 10.6804 6.77303V4.73415C10.6804 4.19547 10.304 3.74504 9.79592 3.62738H10.5302C10.6748 3.62738 10.7916 3.51156 10.7916 3.36815V3.10525C10.7916 2.96185 10.6748 2.84602 10.5302 2.84602ZM2.54407 1.81647C2.61823 1.59769 2.82405 1.44877 3.05769 1.44877H7.84528C8.07892 1.44877 8.28473 1.59585 8.3589 1.81647L8.95782 3.59613H1.94701L2.54592 1.81647H2.54407Z" fill="#A7A7A7"/>
</g>
<defs>
<clipPath id="clip0_254_2941">
<rect width="10.6803" height="8.25297" fill="white" transform="translate(0.111328 0.713379)"/>
</clipPath>
</defs>
</svg>
