<svg width="16" height="16" viewBox="0 0 16 16" fill="none" xmlns="http://www.w3.org/2000/svg">
<path d="M8 0C3.584 0 0 3.584 0 8C0 12.416 3.584 16 8 16C12.416 16 16 12.416 16 8C16 3.584 12.416 0 8 0ZM8 14.4C4.472 14.4 1.6 11.528 1.6 8C1.6 4.472 4.472 1.6 8 1.6C11.528 1.6 14.4 4.472 14.4 8C14.4 11.528 11.528 14.4 8 14.4ZM12.238 5.03401C11.9257 4.71953 11.4174 4.71863 11.104 5.032L7.15279 8.98321C6.7368 9.3992 6.06255 9.39985 5.64576 8.98467L4.89254 8.23436C4.58058 7.9236 4.07591 7.92409 3.76455 8.23545C3.45276 8.54724 3.45276 9.05275 3.76455 9.36454L5.64575 11.2458C6.06231 11.6623 6.73769 11.6623 7.15425 11.2458L12.236 6.164C12.5478 5.85219 12.5487 5.34692 12.238 5.03401Z" fill="#4F95FF"/>
</svg>
