<svg width="15" height="14" viewBox="0 0 15 14" fill="none" xmlns="http://www.w3.org/2000/svg">
<g clip-path="url(#clip0_1517_4509)">
<path d="M11.6826 11.9857C10.8889 11.6767 10.0015 12.1218 9.77522 12.9431C9.41564 14.2471 7.6177 14.3777 7.07326 13.1399C6.73023 12.36 5.78849 12.0473 5.04725 12.4685C3.871 13.1362 2.50714 11.9572 2.99732 10.6972C3.30633 9.90358 2.86121 9.01611 2.03995 8.78987C0.735875 8.43028 0.605283 6.63235 1.84315 6.08791C2.62302 5.74487 2.9357 4.80314 2.5145 4.06189C1.84683 2.88565 3.02583 1.52179 4.28577 2.01197C5.07943 2.32098 5.96691 1.87586 6.19314 1.0546C6.55273 -0.249477 8.35067 -0.380069 8.89511 0.857795C9.23814 1.63767 10.1799 1.95035 10.9211 1.52915C12.0974 0.861474 13.4612 2.04048 12.971 3.30042C12.662 4.09408 13.1072 4.98156 13.9284 5.20779C15.2325 5.56738 15.3631 7.36532 14.1252 7.90976C13.3453 8.25279 13.0327 9.19452 13.4539 9.93577C14.1215 11.112 12.9425 12.4759 11.6826 11.9857Z" fill="#46D48B"/>
<path d="M4.98438 6.6L7.23438 9L10.9844 5" stroke="white"/>
</g>
<defs>
<clipPath id="clip0_1517_4509">
<rect width="14" height="14" fill="white" transform="translate(0.984375)"/>
</clipPath>
</defs>
</svg>
