<svg width="18" height="19" viewBox="0 0 18 19" fill="none" xmlns="http://www.w3.org/2000/svg">
<path d="M8.99594 0.5625C4.02809 0.5625 0 4.59059 0 9.55844C0 14.5263 4.02809 18.5544 8.99594 18.5544C13.9638 18.5544 17.9919 14.5263 17.9919 9.55844C17.9919 4.59059 13.9651 0.5625 8.99594 0.5625ZM12.3651 11.5049H8.43114C7.8095 11.5049 7.3045 10.9999 7.3045 10.3782V5.88199C7.3045 5.26035 7.8095 4.75535 8.43114 4.75535C9.05279 4.75535 9.55779 5.26035 9.55779 5.88199C9.55779 6.50364 9.55779 9.25158 9.55779 9.25158H12.3651C12.9867 9.25158 13.4917 9.75658 13.4917 10.3782C13.4917 10.9999 12.9867 11.5049 12.3651 11.5049Z" fill="#1F2744"/>
</svg>
