<svg width="16" height="16" viewBox="0 0 16 16" fill="none" xmlns="http://www.w3.org/2000/svg">
<path fill-rule="evenodd" clip-rule="evenodd" d="M0 8.00001C0 3.58173 3.58173 0 8.00003 0C12.4183 0 16 3.58173 16 8.00001C16 12.4182 12.4183 16 8.00003 16C3.58173 16 0 12.4182 0 8.00001ZM8.00003 1.14754C4.21551 1.14754 1.14755 4.2155 1.14755 8.00001C1.14755 11.7845 4.21551 14.8525 8.00003 14.8525C11.7845 14.8525 14.8525 11.7845 14.8525 8.00001C14.8525 4.2155 11.7845 1.14754 8.00003 1.14754ZM10.8431 5.15719C11.0789 5.39305 11.0789 5.77547 10.8431 6.01134L8.85431 8.00014L10.8431 9.98896C11.0789 10.2248 11.0789 10.6072 10.8431 10.8431C10.6073 11.079 10.2248 11.079 9.98898 10.8431L8.00016 8.85429L6.01135 10.8431C5.77549 11.079 5.39306 11.079 5.1572 10.8431C4.92134 10.6072 4.92134 10.2248 5.1572 9.98896L7.14602 8.00014L5.1572 6.01134C4.92134 5.77547 4.92134 5.39305 5.1572 5.15719C5.39306 4.92132 5.77549 4.92132 6.01135 5.15719L8.00016 7.14601L9.98898 5.15719C10.2248 4.92132 10.6073 4.92132 10.8431 5.15719Z" fill="#FF3E13"/>
</svg>
