<svg width="46" height="46" viewBox="0 0 46 46" fill="none" xmlns="http://www.w3.org/2000/svg">
<circle cx="23" cy="23" r="23" fill="white"/>
<path d="M31.5482 19.5592L29.5864 32.5468C29.4846 33.3775 28.8056 34.0001 28.0014 34.0001H17.9993C17.1951 34.0001 16.5161 33.3775 16.4143 32.5468L14.452 19.5592C14.33 18.5646 15.0743 17.6841 16.037 17.6841H29.9632C30.9264 17.6841 31.6701 18.5646 31.5482 19.5592ZM31.0511 14.2491L27.6513 13.7983C27.7738 12.7941 27.0916 11.8761 26.1273 11.7485L20.5916 11.0148C19.6273 10.8872 18.7458 11.5977 18.6233 12.6019L15.2235 12.1511C14.6284 12.0729 14.0845 12.5112 14.0088 13.1309C13.9331 13.7507 14.354 14.3171 14.9491 14.3959L30.7766 16.4933C31.3718 16.5721 31.9157 16.1338 31.9914 15.5141C32.0671 14.8943 31.6462 14.3279 31.0511 14.2491Z" fill="#4F95FF"/>
</svg>
