<svg width="16" height="16" viewBox="0 0 16 16" fill="none" xmlns="http://www.w3.org/2000/svg">
<path d="M7.14976 15.6653C3.55973 15.0229 0.838867 11.9241 0.838867 8.18296C0.838867 4.02608 4.23995 0.625 8.39683 0.625C12.5537 0.625 15.9548 4.02608 15.9548 8.18296C15.9548 11.9241 13.2339 15.0229 9.64389 15.6653L9.2282 15.3252H7.56545L7.14976 15.6653Z" fill="#4F95FF"/>
<path d="M11.3442 10.2988L11.6843 8.18262H9.68147V6.70882C9.68147 6.10418 9.90821 5.6507 10.8152 5.6507H11.7977V3.72342C11.2686 3.64785 10.664 3.57227 10.1349 3.57227C8.39661 3.57227 7.18734 4.63038 7.18734 6.51987V8.18262H5.29785V10.2988H7.18734V15.6272C7.60303 15.7028 8.01872 15.7406 8.4344 15.7406C8.85009 15.7406 9.26578 15.7028 9.68147 15.6272V10.2988H11.3442Z" fill="white"/>
</svg>
