<svg width="56" height="56" viewBox="0 0 56 56" fill="none" xmlns="http://www.w3.org/2000/svg">
<rect width="56" height="56" rx="5.33333" fill="#EBF3E3"/>
<path fill-rule="evenodd" clip-rule="evenodd" d="M39.2601 19.8102C39.2601 15.8717 36.5675 14.2929 32.6908 14.2929H23.5868C19.8292 14.2929 17.0132 15.7641 17.0132 19.5475V40.6276C17.0132 41.6667 18.1312 42.3212 19.0369 41.8131L28.174 36.6877L37.2321 41.8045C38.1392 42.3155 39.2601 41.661 39.2601 40.6204V19.8102Z" stroke="#7CB342" stroke-width="2.8" strokeLinecap="round" stroke-linejoin="round"/>
<path fill-rule="evenodd" clip-rule="evenodd" d="M28.7679 22.3602L29.74 24.3023C29.8353 24.493 30.0192 24.6252 30.2325 24.6558L32.4073 24.9688C32.9446 25.0464 33.1584 25.6976 32.7695 26.0707L31.1969 27.5819C31.0423 27.7305 30.972 27.9441 31.0086 28.1539L31.3797 30.2872C31.4711 30.815 30.9094 31.2176 30.4291 30.9679L28.4854 29.96C28.2948 29.8611 28.0666 29.8611 27.8755 29.96L25.9317 30.9679C25.4514 31.2176 24.8898 30.815 24.9817 30.2872L25.3523 28.1539C25.3888 27.9441 25.3185 27.7305 25.164 27.5819L23.5913 26.0707C23.2025 25.6976 23.4163 25.0464 23.9536 24.9688L26.1284 24.6558C26.3416 24.6252 26.5261 24.493 26.6214 24.3023L27.593 22.3602C27.8334 21.8799 28.5275 21.8799 28.7679 22.3602Z" stroke="#7CB342" stroke-width="2.10561" strokeLinecap="round" stroke-linejoin="round"/>
</svg>
