<svg width="58" height="52" viewBox="0 0 58 52" fill="none" xmlns="http://www.w3.org/2000/svg">
<path fill-rule="evenodd" clip-rule="evenodd" d="M54.8273 1.4476C55.8499 0.963602 56.9474 0.808144 58 0.937617V13.397C55.4309 13.8356 52.7778 12.53 51.6244 10.0565C51.4135 9.60438 51.2607 9.14555 51.1827 8.67222L11.6944 27.0859C11.9098 27.3729 12.0994 27.6922 12.2556 28.0271C13.6378 30.9913 12.3508 34.5273 9.38668 35.9095C9.0685 36.0578 8.7347 36.1727 8.40983 36.263L15.7481 52H10.223L1.30235 32.8697C-0.0642325 29.939 1.20489 26.4521 4.13554 25.0856L54.8273 1.4476ZM45.4917 52L58 46.1672V40.6625L33.6867 52L45.4917 52ZM21.7733 52C20.3219 51.3761 18.6291 51.3296 17.078 52H21.7733ZM53.7443 21.1173C55.2404 20.4197 56.9875 20.8504 58 22.0758V26.6215C57.6725 27.0187 57.2541 27.3504 56.7586 27.5815C54.9667 28.417 52.8471 27.6316 52.0194 25.8565C51.1838 24.0646 51.9692 21.945 53.7443 21.1173ZM19.8828 36.9072C18.1077 37.7349 17.3223 39.8545 18.1579 41.6464C18.9856 43.4215 21.1052 44.2069 22.8971 43.3713C24.6722 42.5436 25.4576 40.424 24.622 38.6321C23.7865 36.8402 21.6579 36.0794 19.8828 36.9072ZM49.9595 26.817C52.9582 33.2477 50.1786 40.8845 43.748 43.8832C37.3173 46.8818 29.6805 44.1023 26.6818 37.6716C23.6832 31.2409 26.4627 23.6041 32.8934 20.6055C39.3163 17.5901 46.9609 20.3864 49.9595 26.817ZM35.8187 29.7208C35.6235 29.3021 35.5678 28.9203 35.6438 28.5587C35.7198 28.197 35.9755 27.9147 36.4109 27.7116C36.8296 27.5164 37.2594 27.5199 37.6589 27.7209C37.9848 27.8952 38.2661 28.1922 38.5428 28.6544C38.661 28.8643 38.9323 28.9213 39.15 28.8198L41.3114 27.7711C41.5459 27.6618 41.6531 27.3671 41.527 27.1405C41.0317 26.2094 40.3387 25.5539 39.4893 25.1752C38.6075 24.7709 37.6342 24.6947 36.5937 24.9556L35.8284 23.3144C35.7347 23.1135 35.4892 23.0241 35.2882 23.1178L33.9652 23.7347C33.7643 23.8284 33.6749 24.074 33.7686 24.2749L34.5105 25.8659C33.5759 26.4851 32.9272 27.2362 32.5719 28.1358C32.1977 29.1258 32.2365 30.1272 32.7128 31.1487C33.2438 32.2875 33.9603 32.9932 34.8867 33.2747C35.8131 33.5563 37.1169 33.6415 38.8304 33.5561C39.5337 33.534 40.0773 33.6067 40.4121 33.7564C40.7715 33.915 41.0606 34.2288 41.287 34.7144C41.4823 35.1331 41.5212 35.5227 41.4206 35.8754C41.3201 36.2281 41.0476 36.5182 40.6122 36.7213C40.0931 36.9634 39.5963 36.9911 39.1052 36.8124C38.7123 36.6694 38.3496 36.3288 38.0584 35.7918C37.9402 35.5819 37.6611 35.5081 37.4512 35.6264L35.2898 36.6751C35.0553 36.7844 34.9481 37.0791 35.0742 37.3057C35.6632 38.4378 36.4623 39.1457 37.4456 39.4619C38.5194 39.7971 39.6446 39.7617 40.8124 39.3803L41.5074 40.8708C41.6011 41.0717 41.8466 41.1611 42.0476 41.0674L43.3706 40.4505C43.5715 40.3568 43.6609 40.1112 43.5672 39.9103L42.8488 38.3696C43.675 37.7804 44.2311 37.0929 44.5428 36.2748C44.9159 35.3261 44.8526 34.3158 44.3606 33.2608C43.8452 32.1555 43.112 31.4576 42.1778 31.1593C41.2268 30.8688 39.9319 30.759 38.2441 30.8121C37.5163 30.8253 36.9727 30.7526 36.6378 30.6029C36.2706 30.4275 36.0139 30.1394 35.8187 29.7208Z" fill="#F5F7F2"/>
</svg>
