<svg width="16" height="16" viewBox="0 0 16 16" fill="none" xmlns="http://www.w3.org/2000/svg">
<path d="M15.695 8.3549C15.695 10.6565 14.8537 12.5943 13.3953 13.9134C12.1191 15.0676 10.3734 15.7409 8.29109 15.7409C5.27648 15.7409 2.67554 14.037 1.40645 11.5704L1.40688 11.57C1.40688 11.57 1.40666 11.5702 1.40645 11.5702C0.88052 10.5534 0.579102 9.40588 0.579102 8.18296C0.579102 6.96004 0.88052 5.81249 1.40645 4.79573C2.67554 2.32218 5.27648 0.625 8.2913 0.625C10.3736 0.625 12.1123 1.37387 13.4514 2.597L11.2429 4.7613C10.8398 4.39012 10.386 4.10859 9.89073 3.91964C9.39565 3.73069 8.85922 3.63454 8.2913 3.63454C7.28872 3.63454 6.36154 3.96604 5.60874 4.52071C4.85595 5.07559 4.27753 5.85364 3.97247 6.74674C3.81823 7.20021 3.72718 7.68119 3.72718 8.18296C3.72718 8.68472 3.81823 9.16549 3.97247 9.61897C3.97247 9.61897 3.97119 9.62002 3.96926 9.62149L3.97226 9.6259C4.58238 11.4123 6.28592 12.7385 8.29109 12.7385C9.32881 12.7385 10.2052 12.4635 10.8922 12.01H10.8925C11.7127 11.4742 12.2597 10.6771 12.442 9.73591H8.2913V6.80888H15.5547C15.646 7.30351 15.695 7.81892 15.695 8.3549Z" fill="#00B140"/>
</svg>
