<svg width="16" height="15" viewBox="0 0 16 15" fill="none" xmlns="http://www.w3.org/2000/svg">
<path d="M13.7729 2.41461L13.776 2.41819C14.0933 2.84448 14.6415 3.81821 14.6415 5.21881C14.6415 6.34071 14.2943 7.75979 13.668 8.71457C12.1548 11.0153 10.1934 12.6266 8.5794 13.754L8.5791 13.7542C8.14114 14.0606 7.60975 14.0606 7.17179 13.7542L7.17149 13.754C5.55748 12.6265 3.59601 11.0152 2.08274 8.71441L2.08241 8.71391C1.45517 7.76244 1.10938 6.34176 1.10938 5.21881C1.10938 3.80002 1.67188 2.81925 1.98711 2.40186C3.30927 0.883136 5.4035 0.887787 6.71915 2.41435L6.71938 2.41461L7.04939 2.79706L7.47526 2.42957L7.04939 2.79706C7.49377 3.31205 8.25333 3.31205 8.69771 2.79706L9.02772 2.41461L8.60186 2.04713L9.02772 2.41461C10.3491 0.883282 12.4516 0.883282 13.7729 2.41461Z" stroke="#1F2744" stroke-width="1.125"/>
</svg>
