<svg width="19" height="16" viewBox="0 0 19 16" fill="#00B140" xmlns="http://www.w3.org/2000/svg">
<path d="M15.9354 9.47607C14.4367 11.0333 12.0099 12.746 10.3697 14.0597C9.87018 14.4598 9.15 14.4612 8.65045 14.0612C7.01078 12.7475 4.37047 10.8695 3.08277 9.47607C1.50447 7.76777 1.47151 5.08576 3.08328 3.41092C4.69556 1.73607 7.30899 1.73607 8.92077 3.41092C8.97351 3.46602 9.02473 3.52211 9.07393 3.57919C9.29962 3.83996 9.71803 3.84143 9.94372 3.58066C9.99646 3.51965 10.0517 3.45963 10.1085 3.40058C11.6889 1.76953 14.2663 1.74542 15.8735 3.34843C17.4807 4.95144 17.5674 7.78056 15.9354 9.47656V9.47607Z" fill="#00B140"/>
</svg>
