<svg width="19" height="16" viewBox="0 0 19 16" fill="none" xmlns="http://www.w3.org/2000/svg">
<path d="M15.5741 8.84716C14.0754 10.4044 11.6486 12.1171 10.0084 13.4308C9.50885 13.8308 8.78868 13.8323 8.28912 13.4323C6.64945 12.1186 4.00914 10.2406 2.72145 8.84716C1.14314 7.13886 1.11018 4.45685 2.72195 2.78201C4.33423 1.10717 6.94766 1.10717 8.55944 2.78201C8.61218 2.83712 8.66341 2.89321 8.7126 2.95028C8.93829 3.21105 9.3567 3.21253 9.58239 2.95176C9.63514 2.89075 9.69042 2.83072 9.74722 2.77168C11.3275 1.14063 13.905 1.11652 15.5122 2.71952C17.1194 4.32253 17.2061 7.15165 15.5741 8.84765V8.84716Z" fill="#CACACA"/>
</svg>
