<svg width="44" height="42" viewBox="0 0 44 42" fill="#00B140" xmlns="http://www.w3.org/2000/svg">
<path d="M39.704 5.13632L39.7132 5.14705C40.6658 6.42671 42.3114 9.34984 42.3114 13.5544C42.3114 16.9227 41.2688 21.1834 39.3884 24.0496C34.8458 30.9556 28.9581 35.7923 24.1132 39.1766L24.1123 39.1772C22.7976 40.0969 21.2024 40.0969 19.8877 39.1772L19.8868 39.1766C15.0416 35.792 9.15334 30.9549 4.6106 24.048L4.60961 24.0465C2.72667 21.1902 1.6886 16.9254 1.6886 13.5544C1.6886 9.29527 3.3772 6.35105 4.32351 5.09805C8.29256 0.538919 14.5794 0.55288 18.5289 5.13554L18.5295 5.13632L19.5202 6.28441C20.8542 7.83038 23.1344 7.83038 24.4684 6.28441L25.4591 5.13632C29.4258 0.539356 35.7373 0.539356 39.704 5.13632Z" fill="#00B140" stroke="#4F95FF" stroke-width="3.37719"/>
</svg>
