<svg width="28" height="21" viewBox="0 0 28 21" fill="none" xmlns="http://www.w3.org/2000/svg">
<path d="M25.3553 16.7817H19.7194C19.4315 16.7817 19.1719 16.6072 19.0634 16.3403L18.7396 15.5454C18.599 15.2007 18.2642 14.9751 17.8918 14.9751H16.8916C19.2342 14.2623 20.9391 12.085 20.9391 9.50936V7.90492C21.3843 7.67616 21.8424 7.56023 22.2192 7.50166C22.3789 7.8223 22.7094 8.04366 23.0923 8.04366H25.3646C25.8899 8.04366 26.3425 7.63978 26.3672 7.11442C26.3937 6.55391 25.9467 6.09083 25.3923 6.09083H23.0929C22.6675 6.09083 22.3068 6.36338 22.173 6.74322C21.8116 6.79378 21.3806 6.8912 20.9397 7.07249V7.02008C20.9397 6.42689 20.4588 5.94531 19.865 5.94531H7.5363C6.94311 5.94531 6.46154 6.42627 6.46154 7.02008V7.07249C6.02065 6.8912 5.58964 6.79378 5.2283 6.74322C5.0945 6.36338 4.73377 6.09083 4.30831 6.09083H2.03607C1.51071 6.09083 1.05812 6.49472 1.03345 7.02008C1.00694 7.58058 1.45398 8.04366 2.00832 8.04366H4.30769C4.69123 8.04366 5.02235 7.82168 5.18205 7.49981C5.55819 7.55777 6.01572 7.67369 6.46092 7.90369V9.50936C6.46092 12.085 8.16587 14.2623 10.5084 14.9751H9.50824C9.13581 14.9751 8.80098 15.2007 8.66101 15.5454L8.37058 16.2595C8.24233 16.5752 7.93525 16.7817 7.59426 16.7817H2.04594C0.916294 16.7817 0 17.6974 0 18.8277V19.234C0 20.0202 0.637583 20.6578 1.42377 20.6578H25.9775C26.7637 20.6578 27.4013 20.0202 27.4013 19.234V18.8277C27.4013 17.698 26.4856 16.7817 25.3553 16.7817ZM17.002 16.7817H10.3986C10.205 16.7817 10.0626 16.6017 10.1051 16.4124C10.1754 16.1004 10.4523 15.8784 10.7723 15.8784H11.3963C11.7275 15.8784 12.024 15.6731 12.1406 15.3629L12.1936 15.2217H15.207L15.2601 15.3629C15.3766 15.6731 15.6732 15.8784 16.0043 15.8784H16.6283C16.9484 15.8784 17.2252 16.1004 17.2955 16.4124C17.3381 16.6017 17.1956 16.7817 17.002 16.7817Z" fill="#A7A7A7"/>
<path d="M10.4734 5.39816C10.4068 5.39816 10.3396 5.38028 10.2786 5.34266C10.1047 5.23475 10.0516 5.00661 10.1589 4.83334C10.4284 4.39924 10.5505 3.98179 10.5215 3.5927C10.4981 3.27761 10.3858 3.05316 10.2564 2.79357C10.1071 2.49512 9.9388 2.15722 9.92647 1.67995C9.91352 1.16816 10.0837 0.656369 10.4315 0.158142C10.5486 -0.00957805 10.7793 -0.0502748 10.9464 0.0668825C11.1141 0.18404 11.1548 0.414655 11.0376 0.581758C10.7823 0.947412 10.6572 1.3106 10.6658 1.66146C10.6738 1.97408 10.7866 2.201 10.918 2.46306C11.0617 2.75102 11.2244 3.07721 11.259 3.53782C11.2997 4.086 11.1412 4.65328 10.7873 5.22304C10.717 5.33588 10.5961 5.39816 10.4728 5.39816H10.4734Z" fill="#A7A7A7"/>
<path d="M13.5789 5.39816C13.5123 5.39816 13.4451 5.38028 13.384 5.34266C13.2101 5.23475 13.1571 5.00661 13.2644 4.83334C13.5339 4.39924 13.656 3.98179 13.627 3.5927C13.6035 3.27761 13.4913 3.05316 13.3618 2.79357C13.2126 2.49512 13.0443 2.15722 13.0319 1.67995C13.019 1.16816 13.1892 0.656369 13.5369 0.158142C13.6541 -0.00957805 13.8847 -0.0502748 14.0518 0.0668825C14.2195 0.18404 14.2602 0.414655 14.1431 0.581758C13.8878 0.947412 13.7626 1.3106 13.7713 1.66146C13.7793 1.97408 13.8921 2.201 14.0235 2.46306C14.1671 2.75102 14.3299 3.07721 14.3644 3.53782C14.4051 4.086 14.2467 4.65328 13.8927 5.22304C13.8224 5.33588 13.7016 5.39816 13.5783 5.39816H13.5789Z" fill="#A7A7A7"/>
<path d="M16.6804 5.39816C16.6138 5.39816 16.5466 5.38028 16.4856 5.34266C16.3117 5.23475 16.2587 5.00661 16.366 4.83334C16.6354 4.39862 16.7575 3.98179 16.7285 3.5927C16.7051 3.27761 16.5929 3.05316 16.4634 2.79357C16.3142 2.49512 16.1458 2.15722 16.1335 1.67995C16.1206 1.16816 16.2907 0.656369 16.6385 0.158142C16.7557 -0.00957805 16.9863 -0.0502748 17.1534 0.0668825C17.3211 0.18404 17.3618 0.414655 17.2446 0.581758C16.9894 0.947412 16.8642 1.3106 16.8728 1.66146C16.8808 1.97408 16.9937 2.201 17.125 2.46306C17.2687 2.75102 17.4315 3.07721 17.466 3.53782C17.5067 4.086 17.3482 4.65267 16.9943 5.22304C16.924 5.33588 16.8031 5.39816 16.6798 5.39816H16.6804Z" fill="#A7A7A7"/>
</svg>
