<svg width="11" height="16" viewBox="0 0 11 16" fill="none" xmlns="http://www.w3.org/2000/svg">
<path d="M10.0252 8.42191C10.4555 7.6382 10.6934 6.7367 10.6798 5.77632C10.639 2.95632 8.3626 0.625571 5.54487 0.521378C2.50289 0.408125 0 2.8408 0 5.85786C0 6.78654 0.237831 7.66085 0.654602 8.42191L0.661398 8.43323C0.715759 8.53063 0.772386 8.62576 0.831277 8.71863L4.62072 15.0721C4.94463 15.618 5.73513 15.618 6.05904 15.0721L9.84848 8.71637C9.90737 8.6235 9.964 8.53063 10.0161 8.4355L10.0252 8.42191ZM5.10545 3.55882C6.56641 3.41386 7.78275 4.63246 7.63778 6.09116C7.53133 7.1716 6.65701 8.04591 5.57658 8.15237C4.11561 8.29733 2.89928 7.07873 3.04424 5.62003C3.1507 4.5396 4.02501 3.66528 5.10545 3.55882Z" fill="#DF2323"/>
</svg>
