<svg width="18" height="18" viewBox="0 0 18 18" fill="none" xmlns="http://www.w3.org/2000/svg">
<path d="M15.0592 9.50804C15.5768 8.56532 15.8629 7.48093 15.8466 6.32569C15.7975 2.93354 13.0593 0.129904 9.66987 0.00457137C6.0107 -0.13166 3 2.79458 3 6.42377C3 7.54087 3.28609 8.59257 3.78742 9.50804L3.79559 9.52166C3.86098 9.63882 3.9291 9.75326 3.99994 9.86497L8.55822 17.5075C8.94784 18.1642 9.89874 18.1642 10.2884 17.5075L14.8466 9.86224C14.9175 9.75053 14.9856 9.63882 15.0483 9.52439L15.0592 9.50804ZM9.14129 3.65829C10.8987 3.48391 12.3618 4.94976 12.1874 6.70441C12.0594 8.00405 11.0077 9.05576 9.70801 9.18381C7.95063 9.35819 6.48751 7.89234 6.66189 6.13769C6.78995 4.83805 7.84165 3.78634 9.14129 3.65829Z" fill="#4F95FF"/>
</svg>
