<svg width="15" height="14" viewBox="0 0 15 14" fill="none" xmlns="http://www.w3.org/2000/svg">
<path d="M13.2767 1.57515C11.7735 -0.166976 9.33688 -0.166976 7.83361 1.57515L7.51267 1.94708C7.29871 2.19504 6.95194 2.19504 6.73798 1.94708L6.41703 1.57515C4.91561 -0.166976 2.47901 -0.166976 0.975743 1.57515C0.617909 2.04327 0 3.11633 0 4.65966C0 5.83533 0.355989 7.32735 1.03661 8.3598C2.56202 10.6791 4.53195 12.2929 6.12929 13.4087C6.74351 13.8384 7.51082 13.8384 8.12504 13.4087C9.72239 12.2929 11.6923 10.6791 13.2177 8.3598C13.8965 7.32521 14.2543 5.83533 14.2543 4.65966C14.2543 3.11633 13.6364 2.04327 13.2786 1.57515H13.2767Z" fill="#A7A7A7"/>
</svg>
