<svg width="230" height="172" viewBox="0 0 230 172" fill="none" xmlns="http://www.w3.org/2000/svg">
<g clip-path="url(#clip0_1102_3639)">
<path d="M167.832 163.223H163.258L161.082 145.583H167.832V163.223Z" fill="#9E616A"/>
<path d="M170.245 171.146H166.966L166.38 168.05L164.881 171.146H156.182C155.766 171.146 155.36 171.013 155.024 170.766C154.688 170.519 154.44 170.171 154.316 169.773C154.192 169.375 154.198 168.947 154.334 168.553C154.47 168.159 154.728 167.819 155.071 167.582L162.018 162.785V159.654L169.324 160.09L170.245 171.146Z" fill="#2F2E41"/>
<path d="M195.001 157.451L191.331 160.18L179.059 147.324L184.475 143.296L195.001 157.451Z" fill="#9E616A"/>
<path d="M201.666 162.369L199.035 164.326L196.717 162.191L197.362 165.57L190.382 170.761C190.047 171.009 189.642 171.145 189.225 171.147C188.808 171.149 188.401 171.018 188.064 170.773C187.727 170.527 187.477 170.18 187.351 169.783C187.225 169.386 187.229 168.958 187.363 168.563L190.075 160.569L188.207 158.057L194.33 154.047L201.666 162.369Z" fill="#2F2E41"/>
<path d="M173.156 72.2114C173.156 72.2114 181.833 79.708 177.829 101.079L172.942 122.019L188.882 148.463L183.799 154.646L163.077 126.023L155.568 108.409L153.461 77.0592L173.156 72.2114Z" fill="#2F2E41"/>
<path d="M159.707 113.429L159.185 121.511L160.782 155.955L168.298 154.646L169.734 130.123L159.707 113.429Z" fill="#2F2E41"/>
<path d="M63.261 167.37L67.3509 167.37L69.2963 151.595L63.2605 151.595L63.261 167.37Z" fill="#FFB6B6"/>
<path d="M62.2178 166.035L63.3689 166.035L67.8632 164.207L70.272 166.034H70.2723C71.6335 166.034 72.939 166.575 73.9016 167.538C74.8641 168.5 75.4049 169.806 75.405 171.167V171.334L62.218 171.334L62.2178 166.035Z" fill="#2F2E41"/>
<path d="M79.1096 164.793L83.0988 165.693L88.4715 150.735L82.5838 149.405L79.1096 164.793Z" fill="#FFB6B6"/>
<path d="M78.3861 163.26L79.509 163.514L84.2955 162.721L86.2426 165.034L86.2429 165.034C87.5707 165.334 88.725 166.149 89.4519 167.3C90.1788 168.451 90.4187 169.844 90.119 171.172L90.0822 171.334L77.219 168.43L78.3861 163.26Z" fill="#2F2E41"/>
<path d="M58.0811 70.9315C56.1637 76.7145 56.3664 82.9919 58.542 89.7292L59.4721 127.662C59.4721 127.662 58.0864 152.538 62.5578 161.291H69.0425L72.2532 125.39L72.6564 101.293L86.559 121.623L77.704 160.704L85.6852 161.418L100.054 119.006L82.3257 77.8585L58.0811 70.9315Z" fill="#2F2E41"/>
<path d="M132.865 54.459C137.825 49.9893 145.203 47.7419 151.391 50.2482C145.043 53.7726 140.146 59.4289 137.567 66.2162C136.582 68.8374 135.759 71.8554 133.336 73.2587C131.828 74.1319 129.952 74.1746 128.261 73.7531C126.571 73.3315 125.021 72.4865 123.493 71.6499L123.058 71.64C125.01 65.255 127.905 58.9287 132.865 54.459Z" fill="#E6E6E6"/>
<path d="M151.356 50.3839C145.875 51.0922 140.757 53.5095 136.728 57.2924C135.846 58.0914 135.096 59.0244 134.505 60.057C133.961 61.0815 133.702 62.2329 133.754 63.3915C133.781 64.4727 133.933 65.5756 133.697 66.6445C133.568 67.1898 133.325 67.7017 132.984 68.1466C132.643 68.5914 132.212 68.9592 131.719 69.2258C130.508 69.9219 129.119 70.1414 127.753 70.3088C126.236 70.4947 124.658 70.6637 123.346 71.5143C123.186 71.6174 123.036 71.3646 123.195 71.2617C125.479 69.7818 128.369 70.3202 130.824 69.3326C131.97 68.8717 132.984 68.0627 133.343 66.8396C133.657 65.77 133.501 64.6326 133.464 63.5381C133.397 62.4086 133.607 61.2798 134.076 60.2503C134.613 59.1909 135.326 58.2306 136.185 57.4105C138.09 55.5332 140.277 53.9671 142.668 52.7694C145.389 51.3874 148.327 50.4811 151.354 50.0896C151.541 50.0655 151.542 50.3599 151.356 50.3839Z" fill="white"/>
<path d="M137.954 55.998C137.411 55.2359 137.156 54.3056 137.236 53.3732C137.316 52.4409 137.724 51.5672 138.389 50.9083C138.523 50.7754 138.736 50.9787 138.601 51.1118C137.981 51.7243 137.601 52.5381 137.529 53.4065C137.456 54.2748 137.697 55.1405 138.206 55.8471C138.317 56.0008 138.064 56.1508 137.954 55.998Z" fill="white"/>
<path d="M133.668 62.845C135.552 63.1787 137.492 62.7903 139.102 61.7571C139.261 61.6546 139.412 61.9074 139.253 62.0098C137.575 63.0818 135.556 63.4819 133.596 63.1303C133.41 63.0967 133.483 62.8116 133.668 62.845Z" fill="white"/>
<path d="M145.413 51.7769C145.562 52.1155 145.792 52.412 146.084 52.6396C146.375 52.8672 146.719 53.0188 147.083 53.0809C147.27 53.1121 147.197 53.3972 147.011 53.3662C146.609 53.2958 146.23 53.1278 145.907 52.8771C145.585 52.6263 145.328 52.3004 145.161 51.9277C145.142 51.8939 145.137 51.8543 145.146 51.8168C145.156 51.7793 145.179 51.7468 145.212 51.726C145.245 51.7062 145.285 51.7004 145.323 51.7099C145.361 51.7195 145.393 51.7435 145.413 51.7769Z" fill="white"/>
<path d="M158.206 71.8031C158.088 71.7869 157.971 71.7707 157.852 71.7563C156.273 71.5467 154.68 71.4658 153.088 71.5143C152.964 71.516 152.84 71.5197 152.717 71.525C148.883 71.6827 145.111 72.5509 141.594 74.0854C140.195 74.6973 138.844 75.4148 137.554 76.2316C135.772 77.3597 133.93 78.7247 131.938 79.1848C131.731 79.2351 131.521 79.2726 131.309 79.2969L123.079 72.1713C123.069 72.1457 123.057 72.1219 123.046 72.0963L122.704 71.8268C122.768 71.78 122.835 71.7329 122.899 71.6861C122.935 71.6588 122.974 71.6331 123.011 71.6058C123.036 71.5881 123.061 71.5705 123.083 71.5531C123.091 71.5472 123.099 71.5414 123.106 71.5373C123.128 71.5199 123.15 71.506 123.17 71.4905C123.543 71.226 123.919 70.9636 124.298 70.7033C124.3 70.7015 124.3 70.7015 124.303 70.7012C127.169 68.6907 130.264 67.0273 133.522 65.7459C133.619 65.7089 133.719 65.6701 133.82 65.6364C135.287 65.0908 136.797 64.6661 138.333 64.3665C139.175 64.2051 140.024 64.0865 140.878 64.011C143.085 63.8202 145.308 63.9777 147.465 64.4777C151.766 65.475 155.7 67.8367 158.03 71.5199C158.09 71.6142 158.148 71.7069 158.206 71.8031Z" fill="#E6E6E6"/>
<path d="M158.097 71.8915C153.294 69.1571 147.752 68.0055 142.257 68.6003C141.072 68.7073 139.911 69.0005 138.818 69.469C137.767 69.9598 136.867 70.7231 136.211 71.6794C135.581 72.5589 135.039 73.5314 134.207 74.2424C133.775 74.6001 133.273 74.8625 132.733 75.0124C132.193 75.1624 131.627 75.1965 131.073 75.1125C129.687 74.9392 128.446 74.2781 127.254 73.5895C125.932 72.8249 124.57 72.0097 123.01 71.8985C122.821 71.885 122.853 71.5925 123.041 71.6059C125.756 71.7994 127.739 73.9693 130.295 74.6593C131.487 74.9812 132.784 74.9457 133.807 74.1852C134.701 73.5202 135.261 72.5178 135.891 71.6219C136.517 70.6795 137.365 69.9049 138.359 69.3656C139.426 68.8429 140.573 68.5055 141.753 68.3678C144.404 68.0155 147.093 68.0822 149.723 68.5654C152.728 69.1002 155.619 70.1451 158.272 71.6549C158.436 71.7484 158.26 71.9844 158.097 71.8915Z" fill="white"/>
<path d="M144.015 68.3046C144.041 67.3692 144.398 66.4733 145.023 65.7769C145.647 65.0804 146.5 64.6288 147.427 64.5026C147.615 64.4777 147.662 64.7682 147.474 64.7931C146.61 64.909 145.817 65.3298 145.236 65.9795C144.655 66.6293 144.326 67.4651 144.308 68.3363C144.304 68.5256 144.011 68.4928 144.015 68.3046Z" fill="white"/>
<path d="M136.471 71.1915C137.774 72.592 139.557 73.4499 141.465 73.5941C141.654 73.6083 141.622 73.9008 141.433 73.8867C139.448 73.7329 137.595 72.8363 136.242 71.376C136.113 71.2367 136.343 71.053 136.471 71.1915Z" fill="white"/>
<path d="M152.513 69.4256C152.427 69.7854 152.433 70.1608 152.529 70.5181C152.624 70.8753 152.807 71.2032 153.061 71.4722C153.192 71.6098 152.962 71.7934 152.832 71.6567C152.553 71.3581 152.351 70.9958 152.245 70.6014C152.138 70.2069 152.13 69.7923 152.22 69.3939C152.226 69.3556 152.245 69.3208 152.275 69.2966C152.306 69.2724 152.344 69.2605 152.382 69.2634C152.421 69.2678 152.456 69.2873 152.481 69.3177C152.505 69.348 152.517 69.3868 152.513 69.4256Z" fill="white"/>
<path d="M13.6604 167.084C13.2741 168.533 12.259 169.74 11.0334 170.619C10.8336 170.763 10.6285 170.896 10.4207 171.021C10.3567 171.059 10.2928 171.099 10.2262 171.133C10.1542 171.176 10.0823 171.216 10.0104 171.253H4.24764C4.14374 171.043 4.0425 170.829 3.94126 170.619C1.47151 165.429 -0.262902 159.829 0.0328276 154.125C0.150154 151.912 0.614977 149.732 1.41024 147.664C2.99279 143.542 5.88082 139.975 9.85319 138.179C9.95176 138.134 10.0557 138.089 10.1569 138.046C10.1249 138.161 10.093 138.273 10.061 138.387C9.63483 139.922 9.33367 141.49 9.16049 143.073C9.1445 143.196 9.13118 143.319 9.12052 143.444C8.74203 147.264 9.07812 151.121 10.1116 154.817C10.1143 154.825 10.1169 154.836 10.1196 154.844C10.3461 155.662 10.6089 156.467 10.9082 157.261C11.1427 157.887 11.3958 158.505 11.6729 159.112C12.8291 161.662 14.3797 164.379 13.6604 167.084Z" fill="#E6E6E6"/>
<path d="M10.229 138.166C10.173 138.241 10.117 138.313 10.0611 138.387C8.89093 139.938 7.89725 141.614 7.09848 143.385C7.05585 143.473 7.01589 143.561 6.98126 143.652C5.88678 146.125 5.18389 148.753 4.89782 151.442C4.89473 151.46 4.89295 151.479 4.8925 151.498C4.82589 152.127 4.78593 152.761 4.76994 153.395C4.7107 154.583 4.83927 155.774 5.15093 156.922C5.4351 157.86 5.93305 158.719 6.6056 159.432C6.6722 159.504 6.73881 159.576 6.81074 159.645C6.86403 159.701 6.92264 159.757 6.97859 159.81C7.51676 160.324 8.10556 160.801 8.61176 161.353C8.84378 161.6 9.05331 161.868 9.23786 162.152C9.5324 162.629 9.72266 163.163 9.79613 163.718C9.8696 164.274 9.82461 164.839 9.66413 165.376C9.3018 166.724 8.47323 167.862 7.626 168.946C7.20239 169.489 6.76545 170.038 6.38713 170.619C6.2486 170.827 6.12071 171.037 6.0035 171.253H5.6678C5.7797 171.037 5.90226 170.827 6.03547 170.619C7.00791 169.087 8.39065 167.771 9.10733 166.084C9.59222 164.947 9.73875 163.657 9.12598 162.541C8.94639 162.216 8.72908 161.914 8.47857 161.641C7.99101 161.089 7.40755 160.617 6.87737 160.119C6.74416 159.994 6.61361 159.866 6.48839 159.733C5.82451 159.058 5.31223 158.25 4.98576 157.362C4.61604 156.234 4.44125 155.051 4.4689 153.864C4.4689 153.107 4.50886 152.345 4.58346 151.588C4.59146 151.492 4.60211 151.394 4.61277 151.295C5.15762 146.534 6.96709 142.005 9.85331 138.179C9.9066 138.105 9.96255 138.033 10.0185 137.961C10.133 137.812 10.3435 138.019 10.229 138.166Z" fill="white"/>
<path d="M4.72019 151.614C3.79738 151.459 2.95971 150.981 2.35679 150.265C1.75386 149.549 1.42493 148.643 1.42874 147.707C1.42925 147.669 1.44455 147.633 1.47142 147.605C1.49829 147.578 1.53463 147.563 1.57278 147.562C1.61093 147.561 1.64791 147.575 1.67594 147.601C1.70396 147.627 1.72084 147.663 1.72302 147.701C1.71786 148.572 2.02434 149.417 2.58715 150.082C3.14996 150.747 3.93202 151.189 4.79218 151.328C4.97907 151.359 4.90601 151.644 4.72019 151.614Z" fill="white"/>
<path d="M6.53176 159.485C8.09956 158.39 9.19671 156.743 9.60445 154.874C9.6447 154.689 9.92999 154.761 9.88979 154.946C9.46186 156.89 8.31662 158.601 6.68262 159.738C6.5268 159.846 6.37678 159.593 6.53176 159.485Z" fill="white"/>
<path d="M7.0103 143.354C7.35486 143.488 7.72739 143.535 8.09445 143.49C8.46152 143.445 8.81161 143.309 9.1133 143.095C9.26766 142.985 9.41751 143.238 9.26415 143.348C8.92974 143.583 8.54291 143.732 8.13747 143.783C7.73204 143.834 7.32032 143.784 6.9383 143.639C6.90115 143.629 6.86944 143.604 6.84963 143.571C6.82982 143.538 6.82338 143.499 6.83163 143.461C6.84135 143.423 6.86558 143.391 6.89903 143.371C6.93248 143.351 6.97247 143.345 7.0103 143.354Z" fill="white"/>
<path d="M30.216 148.469C30.1227 148.541 30.0268 148.612 29.9335 148.687C28.6686 149.655 27.4845 150.724 26.3928 151.884C26.3075 151.972 26.2223 152.063 26.1397 152.153L26.137 152.156C23.5485 154.966 21.5017 158.23 20.0999 161.784L20.0919 161.808C20.0892 161.816 20.0865 161.822 20.0839 161.83C19.5282 163.252 19.0803 164.715 18.7438 166.204C18.4187 167.659 18.1523 169.218 17.6434 170.619C17.5662 170.835 17.4809 171.048 17.3903 171.253H5.54517C5.58513 171.043 5.62776 170.829 5.67039 170.619C6.27294 167.532 7.21469 164.521 8.47848 161.641C8.52111 161.545 8.56374 161.449 8.6117 161.353C9.26412 159.93 10.0313 158.562 10.9056 157.263L10.9058 157.262L10.9064 157.261L10.9072 157.261L10.9083 157.261C11.3884 156.552 11.9041 155.868 12.4535 155.212C13.8784 153.516 15.5615 152.056 17.441 150.885C17.4516 150.877 17.4649 150.872 17.4756 150.864C21.2162 148.543 25.6495 147.438 29.8883 148.394H29.8909C30.0002 148.418 30.1067 148.442 30.216 148.469Z" fill="#E6E6E6"/>
<path d="M30.2028 148.61C30.1122 148.634 30.0216 148.66 29.9337 148.687C28.0665 149.221 26.2642 149.96 24.5599 150.89C24.4747 150.936 24.3894 150.984 24.3042 151.032C21.9489 152.346 19.8109 154.017 17.966 155.984C17.9645 155.986 17.9636 155.988 17.9633 155.99C17.942 156.011 17.918 156.035 17.8994 156.056C17.4731 156.515 17.0628 156.991 16.6738 157.482C15.9129 158.396 15.2998 159.423 14.8568 160.527C14.5183 161.447 14.3988 162.433 14.5078 163.407C14.5158 163.506 14.5291 163.601 14.5424 163.7C14.5531 163.777 14.5637 163.855 14.5771 163.934C14.7529 165.003 15.0566 166.074 14.9714 167.164C14.9195 167.722 14.75 168.263 14.474 168.751C14.198 169.239 13.8218 169.663 13.3702 169.996C13.0631 170.233 12.7349 170.442 12.3897 170.619C11.8962 170.873 11.3819 171.086 10.8525 171.253H9.80542C9.94662 171.213 10.0852 171.173 10.2264 171.133C10.7274 170.992 11.2195 170.82 11.6997 170.619C11.974 170.504 12.241 170.373 12.499 170.225C13.57 169.609 14.4625 168.666 14.649 167.406C14.8115 166.303 14.4971 165.2 14.3106 164.121C14.2787 163.934 14.2494 163.751 14.2334 163.567C14.1062 162.632 14.1834 161.682 14.4598 160.78C14.8432 159.655 15.4163 158.605 16.1543 157.674C16.6108 157.067 17.0981 156.485 17.6143 155.928C17.6782 155.857 17.7448 155.785 17.8141 155.713C19.6979 153.731 21.8729 152.048 24.2642 150.723H24.2669C26.0449 149.733 27.9312 148.951 29.8884 148.394H29.8911C29.979 148.367 30.0696 148.341 30.1575 148.317C30.3413 148.269 30.384 148.559 30.2028 148.61Z" fill="white"/>
<path d="M17.7086 156.03C17.0651 155.35 16.684 154.464 16.6335 153.53C16.5829 152.595 16.8661 151.674 17.4325 150.929C17.5476 150.778 17.7866 150.95 17.6714 151.101C17.1426 151.793 16.8789 152.652 16.9278 153.522C16.9766 154.392 17.3349 155.216 17.9378 155.845C18.0687 155.982 17.8387 156.166 17.7086 156.03Z" fill="white"/>
<path d="M14.4155 163.405C16.3271 163.474 18.1944 162.82 19.6452 161.573C19.7888 161.45 19.9731 161.679 19.8296 161.803C18.3175 163.097 16.3729 163.774 14.3838 163.698C14.1942 163.69 14.2269 163.398 14.4155 163.405Z" fill="white"/>
<path d="M24.5099 150.814C24.7041 151.128 24.9734 151.39 25.2937 151.575C25.614 151.76 25.9752 151.862 26.3449 151.873C26.5345 151.878 26.5015 152.17 26.3132 152.166C25.9048 152.152 25.5061 152.038 25.1517 151.834C24.7974 151.631 24.4983 151.344 24.2806 150.998C24.2574 150.967 24.2467 150.929 24.2509 150.89C24.255 150.852 24.2737 150.816 24.303 150.791C24.3335 150.767 24.3723 150.756 24.411 150.76C24.4498 150.764 24.4853 150.783 24.5099 150.814Z" fill="white"/>
<path d="M121.591 46.1258C121.318 46.4854 120.969 46.7808 120.569 46.991C120.169 47.2012 119.728 47.3212 119.276 47.3424C118.825 47.3637 118.375 47.2858 117.957 47.1141C117.539 46.9425 117.164 46.6813 116.858 46.3489L106.787 50.729L107.768 45.107L117.181 41.8096C117.773 41.3324 118.52 41.0892 119.28 41.1259C120.039 41.1626 120.759 41.4767 121.303 42.0088C121.847 42.5408 122.176 43.2538 122.229 44.0125C122.282 44.7713 122.055 45.5232 121.591 46.1258Z" fill="#FFB8B8"/>
<path d="M114.87 47.8811L91.479 58.3005L91.4288 58.2825L64.7686 48.7821C62.7828 47.7443 61.2688 45.9866 60.5367 43.8689C59.8045 41.7512 59.9096 39.4338 60.8304 37.391C61.3408 36.2624 62.0845 35.2547 63.0124 34.4342C63.9403 33.6137 65.0315 32.999 66.2142 32.6306C67.3968 32.2622 68.644 32.1485 69.8738 32.2969C71.1035 32.4453 72.2879 32.8524 73.3489 33.4915L93.1891 45.443L112.428 42.9496L114.87 47.8811Z" fill="#E6E6E6"/>
<path d="M229.844 171.469C229.844 171.511 229.836 171.552 229.82 171.59C229.805 171.629 229.781 171.664 229.752 171.693C229.722 171.723 229.687 171.746 229.649 171.762C229.61 171.778 229.569 171.786 229.527 171.786H0.326073C0.241988 171.786 0.16135 171.753 0.101893 171.693C0.0424355 171.634 0.0090332 171.553 0.0090332 171.469C0.0090332 171.385 0.0424355 171.304 0.101893 171.245C0.16135 171.185 0.241988 171.152 0.326073 171.152H229.527C229.569 171.152 229.61 171.16 229.649 171.176C229.687 171.192 229.722 171.215 229.752 171.244C229.781 171.274 229.805 171.309 229.82 171.347C229.836 171.386 229.844 171.427 229.844 171.469Z" fill="#CCCCCC"/>
<path d="M83.4821 79.0735L59.9021 75.3018C59.2837 75.1037 58.7154 74.7742 58.2364 74.3358C57.7573 73.8974 57.3788 73.3605 57.1268 72.762C56.8749 72.1635 56.7554 71.5175 56.7766 70.8685C56.7978 70.2195 56.9592 69.5827 57.2497 69.002L58.319 66.863L57.9037 44.3911C57.8536 41.4681 58.5742 38.5834 59.993 36.0272C61.4119 33.4711 63.4788 31.3337 65.986 29.8301L68.2855 28.4552L69.4475 25.5041L80.1631 25.7655L80.1944 29.6359L84.0319 35.7552L84.0317 35.7805L83.7909 69.0871L82.7333 72.5243L84.3325 76.5222L83.4821 79.0735Z" fill="#E6E6E6"/>
<path d="M75.7865 21.8345C81.1637 21.8345 85.5227 17.4754 85.5227 12.0983C85.5227 6.72111 81.1637 2.36206 75.7865 2.36206C70.4093 2.36206 66.0503 6.72111 66.0503 12.0983C66.0503 17.4754 70.4093 21.8345 75.7865 21.8345Z" fill="#FFB8B8"/>
<path d="M65.6484 14.2207C65.358 12.9974 65.4913 11.2758 65.6554 10.044C66.0856 6.81463 67.8791 3.74452 70.6038 1.92598C71.1204 1.53359 71.7343 1.28962 72.3794 1.22037C73.0239 1.19346 73.7226 1.53853 73.9205 2.15259C74.0829 1.7473 74.3266 1.37961 74.6366 1.07218C74.9466 0.764755 75.3164 0.524127 75.723 0.365152C76.5398 0.0521997 77.4183 -0.0661515 78.2889 0.0194799C79.9762 0.158563 81.5944 0.751867 82.9717 1.73643C84.3491 2.72098 85.4342 4.06006 86.1119 5.61156C86.3719 6.22934 87.0983 3.94743 87.4278 4.53114C87.7306 5.13788 88.2588 5.60201 88.8995 5.82421C89.5451 6.00436 89.8073 8.66437 90.0614 8.0441C90.2585 8.50249 90.3364 9.00332 90.2879 9.49994C90.2394 9.99655 90.0659 10.4728 89.7837 10.8843C89.5016 11.2959 89.1198 11.6293 88.6741 11.8536C88.2284 12.0779 87.7331 12.1857 87.2345 12.1671C86.5774 12.1425 85.949 11.9008 85.2997 11.7967C82.9778 11.4247 80.5148 13.1084 80.0184 15.4069C79.8407 14.7422 79.5568 14.1106 79.1777 13.5364C78.9852 13.2508 78.7273 13.0153 78.4255 12.8494C78.1237 12.6836 77.7866 12.5922 77.4424 12.5829C76.7818 12.6077 76.2011 13.0396 75.7725 13.5428C75.3438 14.0461 75.0219 14.6333 74.5901 15.1339C73.3231 16.6027 71.6095 20.028 69.8039 19.7782C68.3791 19.581 66.0449 15.8911 65.6484 14.2207Z" fill="#2F2E41"/>
<path d="M134.641 57.1586C134.709 56.7147 134.618 56.2611 134.383 55.878C134.149 55.495 133.786 55.2074 133.36 55.0662L107.141 46.3336C106.889 46.2495 106.623 46.219 106.359 46.2439L99.7873 46.8654L96.0164 47.2231L89.0578 47.8807C88.6377 47.9209 88.2427 48.0994 87.9349 48.3882C87.6272 48.677 87.4239 49.0597 87.3571 49.4765L83.824 71.5463C83.7571 71.9768 83.839 72.4172 84.0563 72.7948C84.2735 73.1725 84.613 73.4647 85.0187 73.6233L111.512 83.8498C111.636 83.8981 111.765 83.9328 111.897 83.9533C112.089 83.9844 112.285 83.9859 112.477 83.9577L129.596 81.4204C130 81.362 130.374 81.1749 130.663 80.887C130.952 80.5991 131.141 80.2257 131.201 79.8221L134.641 57.1586Z" fill="white"/>
<path d="M85.6191 72.0683L112.112 82.2942C112.151 82.3095 112.193 82.3144 112.234 82.3085L129.351 79.7716C129.402 79.7646 129.449 79.7413 129.485 79.7052C129.521 79.669 129.545 79.6221 129.552 79.5713L132.994 56.9076C133.002 56.8522 132.99 56.7959 132.961 56.7482C132.932 56.7005 132.887 56.6644 132.834 56.6461L132.658 56.5864L106.613 47.9155C106.601 47.9112 106.589 47.9083 106.577 47.9066C106.556 47.9029 106.536 47.9018 106.515 47.9034L90.4863 49.4202L89.2143 49.5396C89.1621 49.5452 89.1131 49.5676 89.0749 49.6036C89.0367 49.6396 89.0113 49.6871 89.0026 49.7388L85.47 71.8078C85.4614 71.8617 85.4715 71.917 85.4986 71.9644C85.5257 72.0117 85.5683 72.0484 85.6191 72.0683Z" fill="#4F95FF"/>
<path d="M90.4863 49.4202L106.515 47.9034C106.536 47.9018 106.557 47.9029 106.577 47.9066C106.589 47.9083 106.602 47.9112 106.613 47.9155L132.658 56.5864L125.788 57.3137L123.217 57.5845L115.901 58.3575C115.88 58.3586 115.858 58.3583 115.837 58.3567C115.824 58.3528 115.811 58.3489 115.795 58.3447L90.4863 49.4202Z" fill="#2F2E41"/>
<path d="M85.0182 73.6248L111.511 83.8507C111.636 83.8987 111.766 83.9327 111.898 83.9519C112.09 83.9836 112.285 83.986 112.478 83.9591L129.595 81.4222C129.999 81.3633 130.373 81.176 130.662 80.888C130.952 80.5999 131.14 80.2263 131.201 79.8226L134.64 57.1586C134.691 56.8244 134.653 56.4828 134.529 56.1684C134.511 56.1266 134.494 56.0847 134.474 56.0454C134.337 55.7582 134.13 55.5108 133.871 55.3267C133.715 55.2146 133.543 55.1269 133.36 55.0665L133.329 55.0555L107.142 46.3334C107.035 46.2993 106.926 46.2727 106.815 46.254C106.664 46.2326 106.51 46.2296 106.358 46.2452L99.7874 46.8645L96.0168 47.2242L89.057 47.8813C88.7723 47.9079 88.4973 47.9987 88.2528 48.147C88.2339 48.1562 88.2159 48.167 88.1989 48.1793C88.1868 48.1873 88.1752 48.196 88.1643 48.2055C87.9508 48.3512 87.7691 48.5389 87.6305 48.7571C87.4919 48.9753 87.3991 49.2194 87.3579 49.4746L83.8224 71.5461C83.7556 71.9769 83.8377 72.4176 84.0551 72.7955C84.2725 73.1734 84.6122 73.4659 85.0182 73.6248ZM87.8269 49.5516C87.8698 49.287 87.9872 49.0402 88.1652 48.8399C88.2191 48.7754 88.2794 48.7166 88.3452 48.6644C88.525 48.5191 88.7375 48.4199 88.9643 48.3756C89.0091 48.3663 89.0544 48.3599 89.1 48.3564L100.818 47.2494L106.404 46.7179C106.442 46.7135 106.477 46.7141 106.512 46.7121C106.596 46.7103 106.681 46.7166 106.764 46.7309C106.841 46.7408 106.916 46.7588 106.989 46.7845L133.207 55.5175C133.228 55.5249 133.246 55.5319 133.267 55.5393C133.505 55.628 133.715 55.7804 133.872 55.9799C133.997 56.1326 134.088 56.3099 134.14 56.5002C134.191 56.6905 134.202 56.8895 134.171 57.0843L130.729 79.7507C130.684 80.053 130.542 80.3328 130.326 80.5487C130.11 80.7646 129.83 80.9053 129.527 80.95L112.408 83.4867C112.163 83.5218 111.913 83.4934 111.683 83.404L85.1891 73.1807C84.8854 73.0611 84.6315 72.8418 84.4688 72.5587C84.3062 72.2757 84.2446 71.9459 84.2941 71.6232L87.8269 49.5516Z" fill="#3F3D56"/>
<path d="M88.1073 48.3258C88.1213 48.2857 88.1459 48.2501 88.1787 48.2229C88.1895 48.2143 88.201 48.2064 88.213 48.1994C88.2241 48.1952 88.2355 48.1882 88.2466 48.1839C88.2998 48.1625 88.359 48.1615 88.4128 48.1811L88.9643 48.3756L115.904 57.8788L122.209 57.2126L125.737 56.8405L133.205 56.0499L133.872 55.9799L134.002 55.9655C134.058 55.9604 134.114 55.975 134.161 56.0068C134.207 56.0386 134.241 56.0856 134.256 56.1396C134.26 56.1521 134.262 56.1649 134.263 56.1778C134.269 56.2291 134.257 56.2808 134.231 56.3251C134.204 56.3694 134.164 56.4039 134.116 56.4234C134.095 56.4321 134.073 56.4381 134.051 56.4412L133.142 56.5364L125.788 57.3137L123.217 57.5846L115.901 58.3576C115.88 58.3586 115.858 58.3584 115.837 58.3568C115.824 58.3529 115.811 58.3489 115.795 58.3448L88.3452 48.6644L88.252 48.6314C88.2307 48.6244 88.2108 48.6134 88.1936 48.599C88.152 48.5686 88.1213 48.5257 88.1057 48.4765C88.0902 48.4274 88.0908 48.3746 88.1073 48.3258Z" fill="#3F3D56"/>
<path d="M111.97 84.0212C111.908 84.0113 111.852 83.9773 111.815 83.9266C111.778 83.8759 111.763 83.8127 111.772 83.7506L115.64 58.0849C115.649 58.0225 115.683 57.9664 115.734 57.9289C115.785 57.8914 115.848 57.8756 115.911 57.885L115.913 57.8853C115.975 57.8952 116.03 57.9292 116.068 57.9799C116.105 58.0306 116.12 58.0939 116.111 58.1559L112.243 83.8216C112.234 83.884 112.2 83.9402 112.149 83.9777C112.098 84.0152 112.035 84.0309 111.972 84.0216L111.97 84.0212Z" fill="#3F3D56"/>
<path d="M121.773 82.3931L119.201 82.6645L122.21 57.2119C122.21 57.2119 125.645 56.5899 125.737 56.8393C125.794 56.9882 121.798 82.2298 121.773 82.3931Z" fill="#3F3D56"/>
<path d="M88.2529 48.631L88.1836 60.2383L108.732 68.0679L116.111 58.1559L88.2529 48.631Z" fill="#3F3D56"/>
<path d="M133.873 55.9802C133.701 55.7643 133.47 55.6035 133.208 55.5175L106.99 46.7848C106.917 46.76 106.841 46.7416 106.764 46.7297C106.681 46.7154 106.596 46.709 106.511 46.7108L106.554 46.4451L106.816 46.2551L113.042 41.7475L133.834 48.1195L133.87 55.3267L133.873 55.9802Z" fill="#3F3D56"/>
<path d="M89.2999 67.2646C89.3294 67.2675 89.3585 67.2736 89.3867 67.2828L97.431 69.9249C97.5317 69.958 97.6152 70.0297 97.663 70.1243C97.7109 70.2188 97.7192 70.3286 97.6861 70.4293C97.6531 70.53 97.5814 70.6134 97.4868 70.6613C97.3922 70.7091 97.2825 70.7174 97.1818 70.6844L89.1375 68.0423C89.0441 68.0116 88.9653 67.9476 88.9161 67.8625C88.867 67.7773 88.8509 67.6771 88.871 67.5809C88.8911 67.4846 88.9459 67.3992 89.025 67.3408C89.1042 67.2825 89.202 67.2553 89.2999 67.2646Z" fill="white"/>
<path d="M121.756 115.957C123.522 115.957 124.953 114.526 124.953 112.76C124.953 110.994 123.522 109.563 121.756 109.563C119.991 109.563 118.559 110.994 118.559 112.76C118.559 114.526 119.991 115.957 121.756 115.957Z" fill="#F2F2F2"/>
<path d="M40.2308 127.68C41.9965 127.68 43.4278 126.248 43.4278 124.482C43.4278 122.717 41.9965 121.285 40.2308 121.285C38.4651 121.285 37.0337 122.717 37.0337 124.482C37.0337 126.248 38.4651 127.68 40.2308 127.68Z" fill="#F2F2F2"/>
<path d="M106.837 21.9095C108.602 21.9095 110.034 20.4782 110.034 18.7125C110.034 16.9468 108.602 15.5154 106.837 15.5154C105.071 15.5154 103.64 16.9468 103.64 18.7125C103.64 20.4782 105.071 21.9095 106.837 21.9095Z" fill="#F2F2F2"/>
<path d="M112.082 71.9667C111.668 72.1467 111.219 72.2337 110.767 72.2215C110.316 72.2093 109.872 72.0982 109.468 71.8961C109.064 71.694 108.709 71.4057 108.429 71.0516C108.148 70.6976 107.948 70.2862 107.844 69.8467L96.9175 68.7428L100.522 64.3185L110.346 66.0451C111.096 65.9186 111.866 66.0716 112.511 66.4751C113.156 66.8786 113.63 67.5047 113.844 68.2346C114.058 68.9645 113.997 69.7476 113.672 70.4354C113.347 71.1233 112.782 71.6681 112.082 71.9667Z" fill="#FFB8B8"/>
<path d="M105.362 70.2115L79.8627 67.8621L79.8277 67.8219L61.2179 46.4983C59.9932 44.622 59.532 42.3484 59.9289 40.1432C60.3258 37.9379 61.5507 35.9678 63.3528 34.6362C64.3499 33.9013 65.4913 33.3859 66.702 33.124C67.9126 32.862 69.165 32.8594 70.3767 33.1163C71.5885 33.3733 72.732 33.884 73.7322 34.6147C74.7323 35.3455 75.5663 36.2798 76.1793 37.3561L87.6415 57.4829L105.643 64.7155L105.362 70.2115Z" fill="#E6E6E6"/>
<path d="M169.363 29.2044C168.729 24.5596 167.935 19.5728 164.659 16.2198C163.62 15.1559 162.376 14.3135 161.002 13.7434C159.628 13.1734 158.153 12.8874 156.665 12.9028C155.178 12.9182 153.709 13.2346 152.348 13.833C150.986 14.4314 149.759 15.2994 148.742 16.3845C146.357 18.9286 145.304 22.5007 145.208 25.9864C145.111 29.472 145.888 32.9189 146.749 36.2979C151.306 36.3889 155.83 35.4985 160.013 33.6871C161.059 33.2331 162.088 32.7198 163.193 32.4386C164.298 32.1573 165.086 32.8651 166.114 33.3586L166.678 32.2781C167.14 33.1378 168.571 32.883 169.089 32.0564C169.608 31.2299 169.495 30.1713 169.363 29.2044Z" fill="#2F2E41"/>
<path d="M151.297 55.1297L132.681 55.5279C132.395 55.0337 131.972 54.6332 131.462 54.3752C130.953 54.1172 130.38 54.0128 129.812 54.0747C129.245 54.1366 128.707 54.3622 128.266 54.7239C127.824 55.0856 127.497 55.5679 127.324 56.1121C127.151 56.6563 127.141 57.239 127.293 57.7892C127.446 58.3393 127.755 58.8334 128.183 59.2111C128.611 59.5888 129.14 59.8339 129.705 59.9167C130.27 59.9994 130.846 59.9162 131.365 59.6771C133.834 59.8174 153.151 62.5591 154.303 60.7922C155.473 58.9989 161.716 52.67 161.716 52.67L156.917 45.8379L151.297 55.1297Z" fill="#9E616A"/>
<path d="M155.834 33.7999C160.665 33.7999 164.581 29.8838 164.581 25.0532C164.581 20.2225 160.665 16.3065 155.834 16.3065C151.003 16.3065 147.087 20.2225 147.087 25.0532C147.087 29.8838 151.003 33.7999 155.834 33.7999Z" fill="#9E616A"/>
<path d="M169.843 41.8827C168.812 39.8313 168.312 37.297 166.114 36.632C164.63 36.1829 158.628 36.8559 157.276 37.614C155.026 38.875 157.065 41.238 155.738 43.4492C154.295 45.8531 150.374 50.6772 148.932 53.0811C147.94 54.7336 151.281 59.5843 150.744 61.4356C150.208 63.2868 150.182 65.3646 151.096 67.0617C151.913 68.5807 150.73 69.9244 151.553 71.4409C152.408 73.018 153.457 78.9148 152.661 80.5227L152.129 82.1212C157.416 82.4319 161.862 76.1149 167.117 75.4495C168.422 75.2842 169.777 75.0683 170.853 74.3107C172.437 73.1947 173.064 71.1698 173.455 69.2719C175.339 59.9948 174.067 50.3543 169.843 41.8827Z" fill="#3F3D56"/>
<path d="M177.771 63.5434C177.034 61.533 175.701 52.7435 175.701 52.7435L167.355 52.4988L171.436 62.5621L160.302 78.1486C160.302 78.1486 160.322 78.1829 160.36 78.2439C159.774 78.15 159.174 78.235 158.638 78.4877C158.102 78.7405 157.654 79.1492 157.354 79.6605C157.054 80.1718 156.915 80.7618 156.956 81.3532C156.996 81.9447 157.215 82.5101 157.582 82.9755C157.949 83.4409 158.448 83.7845 159.014 83.9615C159.58 84.1385 160.186 84.1406 160.753 83.9674C161.32 83.7942 161.822 83.454 162.192 82.9911C162.563 82.5282 162.785 81.9642 162.829 81.373C162.87 81.3966 162.918 81.405 162.965 81.397C163.011 81.389 163.054 81.3651 163.085 81.3292C164.324 79.7746 178.507 65.5537 177.771 63.5434Z" fill="#9E616A"/>
<path d="M178.619 57.9924C177.853 54.7594 177.082 51.5089 175.79 48.4476C174.499 45.3864 172.65 42.495 170.05 40.4269C169.218 39.7656 168.289 39.182 167.247 38.9765C166.205 38.7709 165.03 39.001 164.298 39.7708C163.127 41.0026 163.48 42.9799 163.909 44.6244C165.176 49.4734 166.442 54.3225 167.709 59.1715C171.367 58.7838 175.025 58.396 178.683 58.0083L178.619 57.9924Z" fill="#3F3D56"/>
<path d="M166.551 26.2664C166.229 24.1504 165.893 22.0168 165.136 20.0245C164.379 18.0321 163.16 16.166 161.41 15.0373C158.639 13.2504 155.052 13.595 151.946 14.6229C149.544 15.4179 147.199 16.6261 145.505 18.5685C143.811 20.5109 142.86 23.2825 143.49 25.8223C146.803 25.0395 150.117 24.2566 153.43 23.4738L153.067 23.7301C154.155 24.2726 155.105 25.0558 155.845 26.0203C156.585 26.9847 157.096 28.1051 157.338 29.2964C157.575 30.5022 157.541 31.7455 157.239 32.9365C156.936 34.1275 156.373 35.2363 155.589 36.1828C157.849 35.3812 160.108 34.5796 162.368 33.778C163.763 33.2832 165.256 32.7131 166.083 31.444C167.042 29.9726 166.819 28.0224 166.551 26.2664Z" fill="#2F2E41"/>
</g>
<defs>
<clipPath id="clip0_1102_3639">
<rect width="229.844" height="171.786" fill="white"/>
</clipPath>
</defs>
</svg>
