<svg width="46" height="51" viewBox="0 0 46 51" fill="none" xmlns="http://www.w3.org/2000/svg">
<path d="M39.5815 15.1795L39.58 15.1782C38.7286 14.4129 37.8178 13.7308 36.849 13.117L36.8488 13.1169C36.3624 12.8083 36.0373 12.3496 35.8965 11.7971L35.8955 11.7936C35.4362 9.88988 37.5107 8.39501 39.1708 9.43058L39.1723 9.43153C40.3414 10.1712 41.4508 11.0036 42.4814 11.928L39.5815 15.1795ZM39.5815 15.1795C40.4983 15.9922 41.8998 15.8985 42.6932 14.961M39.5815 15.1795L42.6932 14.961M44.2245 40.3424C44.355 40.1043 44.5234 39.9089 44.7161 39.7564V39.5711L44.2245 40.3424ZM44.2245 40.3424C43.6715 41.3585 43.0328 42.3255 42.3152 43.2329L44.2245 40.3424ZM42.6932 14.961C43.458 14.0592 43.3621 12.7156 42.4818 11.9283L42.6932 14.961ZM33.1567 49.55C32.9898 49.613 32.8224 49.6736 32.6547 49.7319L32.7479 50.2839H40.0204H40.2323L40.2926 50.0807C40.3707 49.8173 40.3996 49.5373 40.3756 49.2528L40.3754 49.25C40.2232 47.6325 38.4061 46.7436 37.0366 47.6177L37.1894 47.857L37.0372 47.6173C35.8274 48.3854 34.5039 49.042 33.1567 49.55ZM19.1959 50.2839L19.2887 49.7317C19.1855 49.696 19.0826 49.6595 18.98 49.6221C14.0638 47.8328 9.83161 44.169 7.44636 39.0538C5.06069 33.9377 4.97447 28.3406 6.76421 23.4253L6.76423 23.4252C8.55269 18.5095 12.2174 14.2769 17.3326 11.8916C19.1364 11.0505 20.9813 10.4963 22.8189 10.2085C24.0323 10.0189 25.26 9.94001 26.4867 9.97246C25.6757 10.8452 25.6501 12.2094 26.4607 13.1138C27.3198 14.0723 28.7934 14.1526 29.7526 13.2934L29.7532 13.2928L34.0026 9.46543C34.8777 8.68116 35.0206 7.38413 34.3861 6.43468C34.2717 6.22177 34.1253 6.02757 33.9521 5.85885L33.9515 5.85827L29.8426 1.87858C29.8426 1.87855 29.8425 1.87851 29.8425 1.87847C29.8425 1.87845 29.8425 1.87844 29.8424 1.87842C28.9157 0.979516 27.4365 1.00122 26.5369 1.92699L26.5367 1.92721C25.6385 2.85355 25.6602 4.33286 26.586 5.23246L26.5863 5.23275L27.0101 5.64335C25.3862 5.57398 23.7588 5.66568 22.1518 5.91748C19.8845 6.27207 17.6432 6.94017 15.4916 7.94349C9.28599 10.8372 4.84124 15.9729 2.67104 21.9355C0.500845 27.898 0.604545 34.6893 3.49825 40.8948C5.27755 44.7105 7.90542 47.8615 11.0525 50.2269L11.1283 50.2839H11.223H19.1959ZM37.4984 33.4686V33.4685C37.472 32.2673 36.4776 31.3138 35.2758 31.3402L26.8419 31.5273L22.0472 21.245C21.5391 20.1554 20.2429 19.6836 19.1533 20.1917C18.0629 20.7002 17.591 21.9964 18.0991 23.0861L23.494 34.6554C23.8873 35.4989 24.7519 35.971 25.6275 35.9076L35.3701 35.6912C36.5715 35.6647 37.5244 34.6693 37.4984 33.4686ZM42.0926 43.0568L42.0913 43.0585C40.8818 44.6115 42.18 46.8433 44.1299 46.5568L44.1339 46.5561C44.5256 46.4928 44.8796 46.3382 45.1796 46.0932L45.2839 46.008V45.8733V39.5711V39.0995L44.8671 39.3202C44.5076 39.5107 44.194 39.8075 43.9756 40.206L43.9752 40.2067C43.4299 41.2086 42.8001 42.1621 42.0926 43.0568ZM45.2839 17.7025V17.2755L44.8902 17.4408C43.7595 17.9153 43.1648 19.3154 43.8269 20.508C44.1645 21.1186 44.4671 21.7389 44.739 22.3745L45.2839 22.2628V17.7025Z" fill="#F5F1EC" stroke="#F5F1EC" stroke-width="0.567754"/>
</svg>
