<svg width="56" height="56" viewBox="0 0 56 56" fill="none" xmlns="http://www.w3.org/2000/svg">
<rect width="56" height="56" rx="5.33333" fill="#FEEFDF"/>
<path d="M30.7159 41.871L30.7154 41.8725C30.549 42.325 30.1602 42.6459 29.6776 42.7098L29.6769 42.7099C28.7007 42.8355 27.7145 42.8654 26.7325 42.7991C26.7325 42.7991 26.7325 42.7991 26.7325 42.7991L26.7437 42.6328L30.7159 41.871ZM30.7159 41.871C31.0363 40.9725 30.2899 40.0487 29.3444 40.174L29.3663 40.3392L29.3448 40.174C28.5105 40.2825 27.6433 40.3034 26.8004 40.2395C23.8551 40.0157 21.207 38.7282 19.2391 36.7603C17.0671 34.5884 15.7242 31.5888 15.7242 28.2751C15.7242 24.9609 17.0671 21.9613 19.2391 19.7899L19.2391 19.7899C21.4104 17.618 24.4106 16.2751 27.7243 16.2751C28.8928 16.2751 30.0119 16.438 31.0611 16.7408C31.7538 16.941 32.4267 17.2036 33.0714 17.5253M30.7159 41.871L33.0714 17.5253M34.3004 15.028L34.3003 15.0277C34.0309 14.3194 34.3864 13.5268 35.0942 13.2568L35.0943 13.2567C35.8028 12.9873 36.5953 13.3428 36.8653 14.0512M34.3004 15.028L36.7096 14.1105M34.3004 15.028L34.424 15.3516C33.5772 14.9118 32.6885 14.5568 31.7709 14.292L34.3004 15.028ZM36.8653 14.0512L36.7096 14.1105M36.8653 14.0512L36.8653 14.051L36.7096 14.1105M36.8653 14.0512L38.0642 17.1883L38.0644 17.1887C38.1147 17.3215 38.1444 17.4611 38.1525 17.6028M36.7096 14.1105L37.9086 17.2478C37.9538 17.3671 37.9801 17.4928 37.9865 17.6203M38.1525 17.6028C38.152 17.5998 38.1515 17.5968 38.1511 17.5939L37.9865 17.6203M38.1525 17.6028C38.1526 17.6059 38.1528 17.6089 38.153 17.6119L37.9865 17.6203M38.1525 17.6028C38.2545 18.2654 37.8567 18.92 37.1966 19.1203L37.1968 19.1202L37.148 18.9608M37.9865 17.6203C38.0805 18.2049 37.7303 18.7843 37.148 18.9608M37.148 18.9608L37.1964 19.1203M37.148 18.9608L33.9369 19.9432C33.3013 20.1357 32.6302 19.7769 32.4376 19.1419C32.245 18.5069 32.6038 17.8352 33.2388 17.6427M37.1964 19.1203L33.1904 17.4832M37.1964 19.1203L33.9856 20.1025L33.9852 20.1027C33.2616 20.3219 32.4974 19.9135 32.2781 19.1903C32.0712 18.508 32.4233 17.7884 33.0714 17.5253M37.1964 19.1203L33.0714 17.5253M33.2388 17.6427L33.2272 17.6044M33.2388 17.6427L33.2271 17.6044M33.2388 17.6427L33.0714 17.5253M33.2272 17.6044C33.2441 17.6132 33.2609 17.6219 33.2778 17.6307L33.503 17.5619C33.4337 17.5244 33.3641 17.4876 33.2942 17.4514L33.1904 17.4832M33.2272 17.6044L33.1904 17.4832M33.2272 17.6044C33.2272 17.6044 33.2271 17.6044 33.2271 17.6044M33.1904 17.4832C33.1903 17.4832 33.1902 17.4832 33.1901 17.4833L33.1901 17.4833L33.2271 17.6044M33.2271 17.6044C33.1754 17.5776 33.1235 17.5513 33.0714 17.5253M38.7471 23.545L38.7467 23.544C38.4835 22.9255 38.1682 22.3366 37.8049 21.7696L37.8048 21.7695C37.6226 21.4846 37.5635 21.1599 37.6256 20.8309L37.626 20.8288C37.8539 19.7019 39.3287 19.4212 39.955 20.3841L39.9556 20.385C40.3942 21.0687 40.778 21.7869 41.097 22.5344L38.7471 23.545ZM38.7471 23.545C39.0334 24.205 39.8023 24.5029 40.4571 24.2009M38.7471 23.545L38.9001 23.4787C39.1494 24.0535 39.8182 24.312 40.3873 24.0495M40.3873 24.0495L40.4569 24.201C40.457 24.2009 40.457 24.2009 40.4571 24.2009M40.3873 24.0495C40.9358 23.7974 41.1816 23.1549 40.9438 22.6001L40.3873 24.0495ZM40.4571 24.2009C41.0878 23.9108 41.3702 23.1721 41.0971 22.5347L40.4571 24.2009ZM32.4462 31.0758L32.4462 31.0758L27.9121 29.0827V22.4219C27.9121 21.716 27.3395 21.1434 26.6336 21.1434C25.9273 21.1434 25.3545 21.716 25.3545 22.4219V29.9165C25.3545 30.4629 25.6975 30.9287 26.1791 31.1122L31.4168 33.4144C31.4168 33.4144 31.4168 33.4144 31.4169 33.4144C32.0627 33.6984 32.8167 33.4052 33.1008 32.7599L33.1008 32.7598C33.3848 32.114 33.0923 31.36 32.4462 31.0758ZM33.1663 39.0016L33.1652 39.0022C32.1363 39.5285 32.2733 41.0381 33.3819 41.3695L33.3842 41.3701C33.7025 41.4603 34.0233 41.4328 34.3215 41.2838L34.3217 41.2836C35.0479 40.9188 35.7449 40.4891 36.3982 40.0068L36.3989 40.0063C36.7609 39.7364 36.9493 39.31 36.9106 38.8617L36.9104 38.8596C36.8117 37.8663 35.6794 37.3621 34.8756 37.9519L34.8752 37.9522C34.3365 38.35 33.7648 38.7011 33.1663 39.0016ZM37.6397 35.0714L37.6395 35.0717C37.0568 35.9404 37.7109 37.108 38.7578 37.0619L38.7593 37.0618C39.1654 37.0402 39.5329 36.8404 39.7627 36.4974C40.2185 35.8212 40.6121 35.1133 40.9494 34.3716L40.95 34.3702C41.319 33.5388 40.7433 32.6052 39.8327 32.5663L39.8311 32.5662C39.3097 32.5492 38.8361 32.8412 38.6189 33.317L38.6188 33.3172C38.34 33.9308 38.0161 34.513 37.6397 35.0714ZM39.6557 29.4451L39.6557 29.4457C39.6096 29.9472 39.8539 30.4181 40.2868 30.6723L40.2889 30.6735C41.1019 31.1353 42.1066 30.6172 42.2019 29.6877L42.2021 29.6864C42.2791 28.8741 42.2913 28.0695 42.2357 27.2551L42.2356 27.2546C42.204 26.81 41.9468 26.4177 41.552 26.2105L41.5512 26.2101C40.6649 25.7505 39.6135 26.4375 39.684 27.4341C39.7303 28.1077 39.7196 28.7719 39.6557 29.4451ZM34.2469 41.1347C34.9645 40.7742 35.6533 40.3495 36.2992 39.8727L33.4297 41.2098C33.7088 41.2889 33.9867 41.2648 34.2469 41.1347Z" fill="#F49300" stroke="#F49300" stroke-width="0.333333"/>
</svg>
