<svg width="14" height="14" viewBox="0 0 14 14" fill="none" xmlns="http://www.w3.org/2000/svg">
<path d="M2.71118 6.09853C3.78818 8.21513 5.5196 9.94654 7.63993 11.0235L9.28534 9.37439C9.49101 9.16872 9.78644 9.10888 10.0445 9.19115C10.8821 9.46788 11.7834 9.61746 12.7145 9.61746C13.1296 9.61746 13.4624 9.95028 13.4624 10.3654V12.9831C13.4624 13.3982 13.1296 13.731 12.7145 13.731C5.69162 13.731 0 8.03937 0 1.01647C0 0.601376 0.336561 0.268555 0.747913 0.268555H3.36561C3.7807 0.268555 4.11352 0.601376 4.11352 1.01647C4.11352 1.94762 4.2631 2.84885 4.53983 3.68652C4.6221 3.94455 4.56227 4.23997 4.35659 4.44565L2.71118 6.09853Z" fill="#A7A7A7"/>
</svg>
