<svg width="15" height="15" viewBox="0 0 15 15" fill="none" xmlns="http://www.w3.org/2000/svg">
<path d="M3.11979 6.42104C4.25979 8.66146 6.0925 10.4942 8.33687 11.6342L10.0785 9.88854C10.2963 9.67083 10.609 9.6075 10.8821 9.69458C11.7688 9.9875 12.7227 10.1458 13.7083 10.1458C14.1477 10.1458 14.5 10.4981 14.5 10.9375V13.7083C14.5 14.1477 14.1477 14.5 13.7083 14.5C6.27458 14.5 0.25 8.47542 0.25 1.04167C0.25 0.602292 0.60625 0.25 1.04167 0.25H3.8125C4.25187 0.25 4.60417 0.602292 4.60417 1.04167C4.60417 2.02729 4.7625 2.98125 5.05542 3.86792C5.1425 4.14104 5.07917 4.45375 4.86146 4.67146L3.11979 6.42104Z" fill="white" stroke="white" stroke-width="0.280266"/>
</svg>
