<svg width="14" height="15" viewBox="0 0 14 15" fill="none" xmlns="http://www.w3.org/2000/svg">
<path d="M2.81798 6.56255C3.9374 8.76252 5.73701 10.5621 7.94087 11.6816L9.65109 9.96745C9.86487 9.75367 10.1719 9.69148 10.4401 9.77699C11.3108 10.0646 12.2475 10.2201 13.2153 10.2201C13.6468 10.2201 13.9927 10.566 13.9927 10.9975V13.7183C13.9927 14.1497 13.6468 14.4956 13.2153 14.4956C5.91581 14.4956 0 8.57984 0 1.2803C0 0.848861 0.349818 0.50293 0.777373 0.50293H3.49818C3.92962 0.50293 4.27555 0.848861 4.27555 1.2803C4.27555 2.24813 4.43103 3.18487 4.71866 4.05553C4.80417 4.32372 4.74198 4.63078 4.5282 4.84456L2.81798 6.56255Z" fill="#4F95FF"/>
</svg>
