<svg width="56" height="56" viewBox="0 0 56 56" fill="none" xmlns="http://www.w3.org/2000/svg">
<rect width="56" height="56" rx="5.33333" fill="#E2F5FF"/>
<g clip-path="url(#clip0_1232_3585)">
<path fill-rule="evenodd" clip-rule="evenodd" d="M46.8021 45.3706V10.1493H26.8346V22.3042L25.6464 21.3602V9.83028C25.6648 9.60765 25.7617 9.39879 25.9199 9.24109C26.0083 9.15136 26.1138 9.08012 26.23 9.0315C26.3462 8.98288 26.471 8.95786 26.597 8.95789H47.0397C47.1649 8.95786 47.2889 8.98258 47.4045 9.03063C47.5202 9.07867 47.6252 9.14909 47.7135 9.23783L47.7558 9.28341C47.9113 9.45697 47.9971 9.6819 47.9967 9.91492V19.0979V45.3706H41.8541V37.3108C41.8541 37.1666 41.7969 37.0283 41.6949 36.9264C41.593 36.8244 41.4547 36.7671 41.3105 36.7671H37.4401V46.5621H48V45.3706H46.8021ZM10.5195 46.5588V34.9149C10.0787 35.1013 9.58584 35.1244 9.12952 34.98C8.82858 34.8792 8.56302 34.6938 8.36455 34.4462C8.16375 34.1977 8.03735 33.8975 7.99996 33.5803C7.97355 33.2877 8.00635 32.9928 8.09639 32.7132C8.18643 32.4335 8.33188 32.1749 8.52405 31.9527C8.54651 31.9253 8.57159 31.9003 8.59892 31.8778L21.0924 22.1122C21.1714 22.038 21.2745 21.9948 21.3827 21.9906C21.491 21.9864 21.5972 22.0215 21.6816 22.0894L34.2044 31.8225L34.2597 31.8713C34.5091 32.1135 34.6932 32.4147 34.7951 32.747C34.897 33.0794 34.9132 33.432 34.8424 33.7723C34.7753 34.055 34.6391 34.3167 34.4459 34.5337C34.2527 34.7507 34.0087 34.9164 33.7356 35.0158C33.4937 35.0995 33.2374 35.134 32.982 35.1172C32.7265 35.1005 32.4769 35.0328 32.248 34.9182V46.5035H31.0371V34.4071C31.0371 34.1858 22.4466 27.3954 21.4993 26.6565C20.4935 27.4214 11.7337 34.1434 11.7337 34.4397V46.5621L10.5195 46.5588ZM21.4537 34.7391C22.7193 34.746 23.9309 35.2522 24.8252 36.1477C25.7194 37.0432 26.224 38.2555 26.2291 39.521V44.6154H16.6718V39.521C16.6753 38.2539 17.1802 37.0396 18.0762 36.1435C18.9723 35.2475 20.1866 34.7426 21.4537 34.7391ZM21.8672 35.592V39.5341H25.4023C25.4032 38.5566 25.0426 37.6134 24.3901 36.8857C23.7375 36.158 22.8389 35.6972 21.8672 35.592ZM21.8672 40.3641V43.7886H25.4023V40.3641H21.8672ZM21.0371 43.7886V40.3641H17.5052V43.7886H21.0371ZM21.0371 39.5373V35.592C20.0684 35.6984 19.1728 36.1578 18.5214 36.8826C17.8699 37.6073 17.5081 38.5465 17.5052 39.521L21.0371 39.5373ZM15.7929 45.5204H27.1113V46.3505H15.7929V45.5204ZM29.7057 13.1473H32.9121C32.936 13.1482 32.9587 13.158 32.9756 13.1749C32.9925 13.1919 33.0024 13.2146 33.0032 13.2385V16.9494C33.0024 16.973 32.9924 16.9954 32.9754 17.0118C32.9584 17.0282 32.9357 17.0373 32.9121 17.0373H29.7057C29.6939 17.0378 29.6821 17.0358 29.6711 17.0316C29.66 17.0274 29.6499 17.021 29.6414 17.0128C29.6329 17.0045 29.6262 16.9947 29.6215 16.9838C29.6169 16.9729 29.6145 16.9612 29.6145 16.9494V13.2385C29.6145 13.2143 29.6242 13.1911 29.6412 13.174C29.6583 13.1569 29.6815 13.1473 29.7057 13.1473ZM40.7278 13.1473H43.9342C43.9581 13.1482 43.9808 13.158 43.9978 13.1749C44.0147 13.1919 44.0245 13.2146 44.0254 13.2385V16.9494C44.0245 16.973 44.0145 16.9954 43.9975 17.0118C43.9805 17.0282 43.9578 17.0373 43.9342 17.0373H40.7278C40.7042 17.0373 40.6815 17.0282 40.6645 17.0118C40.6475 16.9954 40.6375 16.973 40.6367 16.9494V13.2385C40.6375 13.2146 40.6474 13.1919 40.6643 13.1749C40.6812 13.158 40.7039 13.1482 40.7278 13.1473ZM35.2168 13.1473H38.4231C38.4471 13.1482 38.4698 13.158 38.4867 13.1749C38.5036 13.1919 38.5135 13.2146 38.5143 13.2385V16.9494C38.5134 16.973 38.5035 16.9954 38.4865 17.0118C38.4695 17.0282 38.4468 17.0373 38.4231 17.0373H35.2168C35.205 17.0378 35.1932 17.0358 35.1821 17.0316C35.1711 17.0274 35.161 17.021 35.1525 17.0128C35.144 17.0045 35.1372 16.9947 35.1326 16.9838C35.128 16.9729 35.1256 16.9612 35.1256 16.9494V13.2385C35.1256 13.2143 35.1352 13.1911 35.1523 13.174C35.1694 13.1569 35.1926 13.1473 35.2168 13.1473ZM29.7057 20.5985H32.9121C32.9357 20.5985 32.9584 20.6077 32.9754 20.624C32.9924 20.6404 33.0024 20.6628 33.0032 20.6864V24.3973C33.0024 24.4213 32.9925 24.444 32.9756 24.4609C32.9587 24.4778 32.936 24.4877 32.9121 24.4885H29.7057C29.6815 24.4885 29.6583 24.4789 29.6412 24.4618C29.6242 24.4447 29.6145 24.4215 29.6145 24.3973V20.6766C29.6145 20.6648 29.6169 20.6531 29.6215 20.6422C29.6262 20.6314 29.6329 20.6215 29.6414 20.6133C29.6499 20.6051 29.66 20.5987 29.6711 20.5945C29.6821 20.5903 29.6939 20.5883 29.7057 20.5887V20.5985ZM40.7278 20.5985H43.9342C43.9578 20.5985 43.9805 20.6077 43.9975 20.624C44.0145 20.6404 44.0245 20.6628 44.0254 20.6864V24.3973C44.0245 24.4213 44.0147 24.444 43.9978 24.4609C43.9808 24.4778 43.9581 24.4877 43.9342 24.4885H40.7278C40.7039 24.4877 40.6812 24.4778 40.6643 24.4609C40.6474 24.444 40.6375 24.4213 40.6367 24.3973V20.6766C40.6375 20.653 40.6475 20.6307 40.6645 20.6143C40.6815 20.5979 40.7042 20.5887 40.7278 20.5887V20.5985ZM35.2168 20.5985H38.4231C38.4468 20.5985 38.4695 20.6077 38.4865 20.624C38.5035 20.6404 38.5134 20.6628 38.5143 20.6864V24.3973C38.5135 24.4213 38.5036 24.444 38.4867 24.4609C38.4698 24.4778 38.4471 24.4877 38.4231 24.4885H35.2168C35.1926 24.4885 35.1694 24.4789 35.1523 24.4618C35.1352 24.4447 35.1256 24.4215 35.1256 24.3973V20.6766C35.1256 20.6648 35.128 20.6531 35.1326 20.6422C35.1372 20.6314 35.144 20.6215 35.1525 20.6133C35.161 20.6051 35.1711 20.5987 35.1821 20.5945C35.1932 20.5903 35.205 20.5883 35.2168 20.5887V20.5985ZM40.7278 28.0464H43.9342C43.9581 28.0472 43.9808 28.0571 43.9978 28.074C44.0147 28.0909 44.0245 28.1137 44.0254 28.1376V31.8453C44.0245 31.8692 44.0147 31.8919 43.9978 31.9088C43.9808 31.9257 43.9581 31.9356 43.9342 31.9364H40.7278C40.7039 31.9356 40.6812 31.9257 40.6643 31.9088C40.6474 31.8919 40.6375 31.8692 40.6367 31.8453V28.1376C40.6375 28.1137 40.6474 28.0909 40.6643 28.074C40.6812 28.0571 40.7039 28.0472 40.7278 28.0464ZM35.2168 28.0464H38.4231C38.4471 28.0472 38.4698 28.0571 38.4867 28.074C38.5036 28.0909 38.5135 28.1137 38.5143 28.1376V31.8453C38.5135 31.8692 38.5036 31.8919 38.4867 31.9088C38.4698 31.9257 38.4471 31.9356 38.4231 31.9364H37.4466V30.7092L35.1321 28.8733V28.1376C35.1321 28.1134 35.1417 28.0902 35.1588 28.0731C35.1759 28.056 35.1991 28.0464 35.2233 28.0464H35.2168Z" fill="#05BBFF"/>
</g>
<defs>
<clipPath id="clip0_1232_3585">
<rect width="40" height="37.6042" fill="white" transform="translate(8 8.95795)"/>
</clipPath>
</defs>
</svg>
