<svg width="52" height="46" viewBox="0 0 52 46" fill="none" xmlns="http://www.w3.org/2000/svg">
<path fill-rule="evenodd" clip-rule="evenodd" d="M6.37688 15.2752C1.10769 17.7323 -1.24324 23.9714 1.21524 29.2449L1.21564 29.2458L4.01394 35.2528C4.28502 35.8348 4.77621 36.2851 5.37942 36.5048C5.98263 36.7245 6.64841 36.6955 7.23023 36.4242C8.86552 35.6616 10.4413 36.2895 11.0578 37.6115C11.7263 39.0452 11.1134 40.7856 9.5943 41.4939C8.38303 42.0588 7.85899 43.4986 8.42381 44.7098L9.02542 46H14.3656L13.6731 44.515C16.0747 42.2876 16.9082 38.7058 15.4442 35.5661C13.9464 32.354 10.7005 30.8988 7.53121 31.3417L5.60242 27.2012L5.60202 27.2004C4.297 24.4017 5.52251 21.0138 8.42228 19.6616L25.4128 11.7388L27.1832 15.5356C27.7481 16.7468 29.1879 17.2709 30.3991 16.706C31.6104 16.1412 32.1344 14.7014 31.5696 13.4902L29.7992 9.69341L38.4838 5.6437C41.3836 4.29151 44.7666 5.53044 46.0716 8.32906L46.072 8.32994L47.9232 12.2955C45.5218 14.5241 44.6902 18.1075 46.1538 21.246C47.293 23.6891 49.5315 25.2386 52 25.6136V20.6203C51.3728 20.3476 50.8458 19.8561 50.5401 19.2006C49.8713 17.7664 50.4842 16.0255 52 15.317V9.58698L50.458 6.28366L50.4576 6.28278C47.9982 1.00977 41.7076 -1.19974 36.4384 1.25732L6.37688 15.2752ZM34.1858 46H45.6378L52 43.0332V37.6931L44.492 41.1941L43.1726 38.3646C42.6078 37.1534 41.168 36.6293 39.9567 37.1941C38.7454 37.759 38.2214 39.1988 38.7862 40.41L40.1056 43.2395L34.1858 46ZM31.318 18.6753C32.5293 18.1105 33.9691 18.6346 34.5339 19.8458L39.5764 30.6595C40.1412 31.8708 39.6172 33.3106 38.4059 33.8754C37.1947 34.4402 35.7549 33.9162 35.19 32.7049L30.1475 21.8912C29.5827 20.68 30.1068 19.2402 31.318 18.6753Z" fill="#EEF6F2"/>
</svg>
