<svg width="56" height="56" viewBox="0 0 56 56" fill="none" xmlns="http://www.w3.org/2000/svg">
<rect width="56" height="56" rx="5.33333" fill="#FFF2F2"/>
<path d="M28 13.3333C25.0992 13.3333 22.2636 14.1935 19.8517 15.8051C17.4397 17.4167 15.5599 19.7073 14.4498 22.3873C13.3397 25.0673 13.0492 28.0162 13.6152 30.8613C14.1811 33.7064 15.5779 36.3197 17.6291 38.3709C19.6803 40.422 22.2936 41.8189 25.1387 42.3848C27.9837 42.9507 30.9327 42.6603 33.6127 41.5502C36.2927 40.4401 38.5833 38.5603 40.1949 36.1483C41.8065 33.7364 42.6667 30.9008 42.6667 28C42.6667 24.1101 41.1215 20.3796 38.3709 17.6291C35.6204 14.8785 31.8899 13.3333 28 13.3333ZM34.276 32.3906C34.4034 32.5136 34.5049 32.6608 34.5748 32.8234C34.6447 32.9861 34.6815 33.1611 34.683 33.3381C34.6846 33.5152 34.6508 33.6907 34.5838 33.8546C34.5167 34.0184 34.4177 34.1673 34.2925 34.2925C34.1674 34.4177 34.0185 34.5167 33.8546 34.5837C33.6908 34.6508 33.5152 34.6845 33.3382 34.683C33.1611 34.6814 32.9862 34.6447 32.8235 34.5748C32.6608 34.5049 32.5137 34.4033 32.3907 34.276L28 29.8853L23.6094 34.276C23.4864 34.4033 23.3392 34.5049 23.1766 34.5748C23.0139 34.6447 22.8389 34.6814 22.6619 34.683C22.4848 34.6845 22.3093 34.6508 22.1454 34.5837C21.9815 34.5167 21.8327 34.4177 21.7075 34.2925C21.5823 34.1673 21.4833 34.0184 21.4163 33.8546C21.3492 33.6907 21.3155 33.5152 21.317 33.3381C21.3186 33.1611 21.3553 32.9861 21.4252 32.8234C21.4951 32.6608 21.5967 32.5136 21.724 32.3906L26.1147 28L21.724 23.6093C21.5967 23.4863 21.4951 23.3392 21.4252 23.1765C21.3553 23.0138 21.3186 22.8389 21.317 22.6618C21.3155 22.4848 21.3492 22.3092 21.4163 22.1454C21.4833 21.9815 21.5823 21.8326 21.7075 21.7075C21.8327 21.5823 21.9815 21.4833 22.1454 21.4162C22.3093 21.3492 22.4848 21.3154 22.6619 21.317C22.8389 21.3185 23.0139 21.3553 23.1766 21.4252C23.3392 21.4951 23.4864 21.5966 23.6094 21.724L28 26.1146L32.3907 21.724C32.5137 21.5966 32.6608 21.4951 32.8235 21.4252C32.9862 21.3553 33.1611 21.3185 33.3382 21.317C33.5152 21.3154 33.6908 21.3492 33.8546 21.4162C34.0185 21.4833 34.1674 21.5823 34.2925 21.7075C34.4177 21.8326 34.5167 21.9815 34.5838 22.1454C34.6508 22.3092 34.6846 22.4848 34.683 22.6618C34.6815 22.8389 34.6447 23.0138 34.5748 23.1765C34.5049 23.3392 34.4034 23.4863 34.276 23.6093L29.8853 28L34.276 32.3906Z" fill="#E72424"/>
</svg>
