<svg width="44" height="43" viewBox="0 0 44 43" fill="none" xmlns="http://www.w3.org/2000/svg">
<path fill-rule="evenodd" clip-rule="evenodd" d="M14.4803 2.48273C10.0341 4.55602 6.30257 7.90119 3.75756 12.0952C1.21255 16.2893 -0.0316217 21.1438 0.182367 26.0449C0.396355 30.9461 2.0589 35.6737 4.95975 39.63C5.85195 40.8468 6.84896 41.9738 7.93603 43H41.99C42.4244 42.5898 42.845 42.1631 43.2506 41.7205C43.5073 41.4403 43.7572 41.1548 44 40.864V9.06186C41.2203 5.73423 37.5913 3.16319 33.4466 1.65464C27.2648 -0.595335 20.4424 -0.297463 14.4803 2.48273ZM37.7207 27.2071C38.0038 27.3046 38.2646 27.4575 38.488 27.6569C38.7113 27.8563 38.8928 28.0982 39.0217 28.3685C39.1506 28.6387 39.2243 28.9319 39.2387 29.231C39.2531 29.5301 39.2077 29.829 39.1053 30.1104C39.0029 30.3917 38.8455 30.6499 38.6422 30.8698C38.439 31.0896 38.194 31.2668 37.9215 31.391C37.6491 31.5152 37.3546 31.5839 37.0554 31.593C36.7561 31.6022 36.458 31.5516 36.1784 31.4444L26.3105 27.8527L22.7189 37.7207C22.6214 38.0038 22.4685 38.2646 22.2691 38.488C22.0697 38.7114 21.8278 38.8928 21.5575 39.0217C21.2873 39.1506 20.9941 39.2243 20.695 39.2387C20.3959 39.2531 20.097 39.2077 19.8156 39.1053C19.5343 39.0029 19.2761 38.8455 19.0562 38.6422C18.8364 38.439 18.6592 38.194 18.535 37.9216C18.4108 37.6491 18.3421 37.3546 18.333 37.0554C18.3238 36.7561 18.3743 36.458 18.4816 36.1784L22.0733 26.3105L12.2053 22.7189C11.9222 22.6214 11.6614 22.4685 11.438 22.2691C11.2146 22.0697 11.0332 21.8278 10.9043 21.5576C10.7754 21.2873 10.7017 20.9941 10.6873 20.695C10.6729 20.3959 10.7183 20.097 10.8207 19.8156C10.9231 19.5343 11.0805 19.2761 11.2838 19.0562C11.487 18.8364 11.732 18.6592 12.0044 18.535C12.2769 18.4108 12.5714 18.3421 12.8706 18.333C13.1699 18.3238 13.468 18.3744 13.7476 18.4816L23.6155 22.0733L27.2071 12.2053C27.3046 11.9222 27.4575 11.6614 27.6569 11.438C27.8563 11.2147 28.0982 11.0332 28.3684 10.9043C28.6387 10.7754 28.9319 10.7017 29.231 10.6873C29.5301 10.6729 29.829 10.7183 30.1104 10.8207C30.3917 10.9231 30.6499 11.0805 30.8698 11.2838C31.0896 11.487 31.2668 11.732 31.391 12.0045C31.5152 12.2769 31.5839 12.5714 31.593 12.8706C31.6022 13.1699 31.5516 13.468 31.4444 13.7476L27.8527 23.6155L37.7207 27.2071Z" fill="#FAF4F4"/>
</svg>
