<svg width="45" height="44" viewBox="0 0 45 44" fill="none" xmlns="http://www.w3.org/2000/svg">
<path d="M22.4979 22.7986C19.1234 22.7986 16.377 20.0521 16.377 16.6776C16.377 13.3031 19.1234 10.5566 22.4979 10.5566C25.8724 10.5566 28.6189 13.3031 28.6189 16.6776C28.6189 20.0521 25.8724 22.7986 22.4979 22.7986ZM22.4979 12.1534C20.007 12.1534 17.9737 14.1866 17.9737 16.6776C17.9737 19.1686 20.007 21.2018 22.4979 21.2018C24.9889 21.2018 27.0221 19.1686 27.0221 16.6776C27.0221 14.1866 24.9889 12.1534 22.4979 12.1534Z" fill="#1F2744"/>
<path d="M31.6434 33.4439C31.207 33.4439 30.845 33.082 30.845 32.6455C30.845 28.9729 27.0979 25.9923 22.4992 25.9923C17.9005 25.9923 14.1534 28.9729 14.1534 32.6455C14.1534 33.082 13.7915 33.4439 13.355 33.4439C12.9186 33.4439 12.5566 33.082 12.5566 32.6455C12.5566 28.1 17.017 24.3955 22.4992 24.3955C27.9815 24.3955 32.4418 28.1 32.4418 32.6455C32.4418 33.082 32.0799 33.4439 31.6434 33.4439Z" fill="#1F2744"/>
<circle cx="22.5" cy="22" r="21.25" stroke="#1F2744" stroke-width="1.5"/>
</svg>
