<svg width="308" height="234" viewBox="0 0 308 234" fill="none" xmlns="http://www.w3.org/2000/svg">
<g clip-path="url(#clip0_2166_15146)">
<path d="M123.515 49.1235H122.397V18.5182C122.397 16.1921 121.939 13.8887 121.049 11.7396C120.159 9.59045 118.854 7.63772 117.209 5.99287C115.564 4.34802 113.612 3.04325 111.463 2.15306C109.314 1.26287 107.01 0.804689 104.684 0.804688H39.8425C35.1445 0.804679 30.639 2.67091 27.3171 5.99283C23.9952 9.31475 22.1289 13.8203 22.1289 18.5182V186.421C22.1289 188.747 22.5871 191.051 23.4773 193.2C24.3674 195.349 25.6722 197.302 27.3171 198.947C28.9619 200.592 30.9146 201.896 33.0637 202.786C35.2128 203.677 37.5162 204.135 39.8424 204.135H104.684C109.382 204.135 113.887 202.269 117.209 198.947C120.531 195.625 122.397 191.119 122.397 186.421V70.9089H123.515V49.1235Z" fill="#3F3D56"/>
<path d="M105.398 5.41406H96.9337C97.3229 6.36834 97.4715 7.4037 97.3663 8.42893C97.2612 9.45416 96.9055 10.4378 96.3306 11.2932C95.7558 12.1486 94.9794 12.8495 94.0698 13.3341C93.1603 13.8188 92.1455 14.0723 91.1149 14.0724H53.968C52.9374 14.0723 51.9227 13.8188 51.0131 13.3341C50.1036 12.8495 49.3272 12.1486 48.7523 11.2932C48.1774 10.4378 47.8218 9.45417 47.7166 8.42894C47.6114 7.40371 47.76 6.36834 48.1493 5.41406H40.2439C38.5067 5.41406 36.7866 5.75622 35.1817 6.421C33.5767 7.08578 32.1185 8.06017 30.8901 9.28852C29.6617 10.5169 28.6874 11.9752 28.0226 13.5801C27.3578 15.185 27.0156 16.9052 27.0156 18.6423V186.299C27.0156 188.036 27.3578 189.756 28.0226 191.361C28.6874 192.966 29.6617 194.424 30.8901 195.653C32.1184 196.881 33.5767 197.856 35.1816 198.52C36.7866 199.185 38.5067 199.527 40.2439 199.527H105.398C107.135 199.527 108.855 199.185 110.46 198.52C112.065 197.856 113.523 196.881 114.751 195.653C115.98 194.424 116.954 192.966 117.619 191.361C118.284 189.756 118.626 188.036 118.626 186.299V18.6423C118.626 16.9052 118.284 15.185 117.619 13.5801C116.954 11.9752 115.98 10.5169 114.751 9.28852C113.523 8.06017 112.065 7.08578 110.46 6.421C108.855 5.75622 107.135 5.41406 105.398 5.41406Z" fill="white"/>
<path d="M144.296 204.164H1.34395C1.24444 204.164 1.14901 204.125 1.07864 204.055C1.00828 203.984 0.96875 203.889 0.96875 203.789C0.96875 203.69 1.00828 203.594 1.07864 203.524C1.14901 203.454 1.24444 203.414 1.34395 203.414H144.296C144.395 203.414 144.491 203.454 144.561 203.524C144.631 203.594 144.671 203.69 144.671 203.789C144.671 203.889 144.631 203.984 144.561 204.055C144.491 204.125 144.395 204.164 144.296 204.164Z" fill="#CBCBCB"/>
<path d="M72.821 130.503C90.3198 130.503 104.505 116.318 104.505 98.8191C104.505 81.3203 90.3198 67.1348 72.821 67.1348C55.3223 67.1348 41.1367 81.3203 41.1367 98.8191C41.1367 116.318 55.3223 130.503 72.821 130.503Z" fill="#3EA570"/>
<path d="M69.6801 110.906C68.9673 110.907 68.2734 110.677 67.7032 110.249L67.6678 110.222L60.2215 104.526C59.8767 104.262 59.5873 103.932 59.3698 103.556C59.1524 103.18 59.0112 102.764 58.9543 102.334C58.8974 101.903 58.9259 101.465 59.0382 101.045C59.1505 100.625 59.3443 100.232 59.6087 99.8869C59.8731 99.5421 60.2028 99.2527 60.5791 99.0352C60.9553 98.8178 61.3707 98.6766 61.8015 98.6197C62.2323 98.5628 62.6701 98.5913 63.0899 98.7036C63.5097 98.8159 63.9033 99.0097 64.2481 99.2741L69.0712 102.973L80.4684 88.1038C80.7327 87.7591 81.0623 87.4698 81.4383 87.2524C81.8144 87.0351 82.2296 86.894 82.6603 86.8371C83.0909 86.7802 83.5285 86.8087 83.9481 86.9209C84.3678 87.0332 84.7612 87.227 85.1059 87.4913L85.1068 87.492L85.0361 87.5902L85.1088 87.492C85.8042 88.0265 86.2592 88.8151 86.3739 89.6847C86.4886 90.5543 86.2537 91.4339 85.7206 92.1304L72.315 109.612C72.0049 110.014 71.6061 110.34 71.1497 110.564C70.6932 110.788 70.1914 110.904 69.683 110.902L69.6801 110.906Z" fill="white"/>
<path d="M261.451 207.278C261.836 206.655 262.29 206.077 262.804 205.554C263.016 205.334 263.239 205.127 263.469 204.926C264.87 203.679 266.578 202.828 268.417 202.46C270.256 202.092 272.16 202.22 273.933 202.832C275.706 203.443 277.284 204.516 278.505 205.94C279.726 207.363 280.545 209.087 280.879 210.932C282.427 205.209 278.399 199.573 274.349 195.243C270.297 190.914 265.665 186.166 265.689 180.235C265.7 176.935 267.314 173.991 269.752 171.808C269.827 171.742 269.902 171.676 269.979 171.612C272.925 169.087 276.715 167.766 280.593 167.913C287.796 168.299 294.086 173.141 298.454 178.883C305.485 188.124 308.566 201.094 303.644 211.613C299.314 220.864 290.08 226.357 280.657 230.774C279.341 231.391 278.028 231.989 276.717 232.569C276.708 232.571 276.699 232.577 276.69 232.579C276.627 232.607 276.564 232.635 276.505 232.663C276.234 232.783 275.964 232.902 275.696 233.02L275.82 233.101L276.207 233.352C276.073 233.271 275.94 233.192 275.806 233.11C275.766 233.086 275.723 233.062 275.684 233.038C271.055 230.261 266.362 227.323 263.165 222.987C259.849 218.485 258.515 212.037 261.451 207.278Z" fill="#F1F1F1"/>
<path d="M292.332 196.824C293.357 199.155 294.036 201.624 294.349 204.151C294.595 206.405 294.502 208.683 294.074 210.91C293.155 215.485 291.151 219.773 288.23 223.412C286.026 226.175 283.482 228.649 280.658 230.774C279.342 231.391 278.029 231.989 276.718 232.568C276.709 232.571 276.7 232.577 276.691 232.579C276.628 232.607 276.565 232.635 276.506 232.663C276.235 232.782 275.965 232.902 275.696 233.02L275.821 233.101L276.208 233.352C276.074 233.27 275.941 233.192 275.807 233.11C275.767 233.086 275.724 233.062 275.685 233.038C276.703 229.475 276.853 225.72 276.121 222.087C275.39 218.454 273.798 215.05 271.48 212.159C269.149 209.305 266.176 207.041 262.805 205.554C263.016 205.334 263.24 205.127 263.47 204.926C264.769 205.522 266.012 206.232 267.186 207.048C271.384 209.949 274.536 214.125 276.175 218.957C277.639 223.34 277.822 228.051 276.702 232.535C276.935 232.383 277.168 232.227 277.395 232.072C281.706 229.164 285.68 225.672 288.674 221.389C291.255 217.77 292.907 213.572 293.484 209.164C294.058 204.348 292.853 199.613 290.703 195.317C288.329 190.72 285.338 186.47 281.812 182.684C278.271 178.793 274.267 175.35 269.89 172.432C269.791 172.366 269.722 172.264 269.697 172.148C269.671 172.032 269.691 171.91 269.753 171.808C269.8 171.715 269.881 171.645 269.98 171.612C270.03 171.599 270.082 171.598 270.133 171.608C270.183 171.619 270.231 171.64 270.272 171.671C270.813 172.032 271.348 172.396 271.878 172.77C276.286 175.892 280.289 179.549 283.796 183.657C287.184 187.617 290.268 192.017 292.332 196.824Z" fill="white"/>
<path d="M197.963 15.5164C201.68 15.5164 204.692 12.5037 204.692 8.78748C204.692 5.07122 201.68 2.05859 197.963 2.05859C194.247 2.05859 191.234 5.07122 191.234 8.78748C191.234 12.5037 194.247 15.5164 197.963 15.5164Z" fill="#F1F1F1"/>
<path d="M281.638 105.564C283.903 105.564 285.74 103.728 285.74 101.462C285.74 99.1961 283.903 97.3594 281.638 97.3594C279.372 97.3594 277.535 99.1961 277.535 101.462C277.535 103.728 279.372 105.564 281.638 105.564Z" fill="#F1F1F1"/>
<path d="M161.571 116.82C163.837 116.82 165.674 114.983 165.674 112.718C165.674 110.452 163.837 108.615 161.571 108.615C159.305 108.615 157.469 110.452 157.469 112.718C157.469 114.983 159.305 116.82 161.571 116.82Z" fill="#F1F1F1"/>
<path d="M163.887 233.805H306.839C306.938 233.805 307.034 233.766 307.104 233.695C307.174 233.625 307.214 233.529 307.214 233.43C307.214 233.33 307.174 233.235 307.104 233.165C307.034 233.094 306.938 233.055 306.839 233.055H163.887C163.787 233.055 163.692 233.094 163.622 233.165C163.551 233.235 163.512 233.33 163.512 233.43C163.512 233.529 163.551 233.625 163.622 233.695C163.692 233.766 163.787 233.805 163.887 233.805Z" fill="#CBCBCB"/>
<path d="M291.063 37.0631C291.251 35.7304 290.943 34.3751 290.199 33.2542C289.454 32.1332 288.324 31.3243 287.022 30.9809C285.721 30.6374 284.339 30.7832 283.138 31.3907C281.937 31.9981 281.001 33.025 280.506 34.2767L268.906 47.5755L272.31 57.0819L283.976 41.5428C284.737 41.7867 285.543 41.8606 286.336 41.7595C287.129 41.6584 287.89 41.3847 288.566 40.9575C289.241 40.5304 289.815 39.9604 290.247 39.2875C290.678 38.6146 290.957 37.8553 291.063 37.0631Z" fill="#EBFBE5"/>
<path d="M242.981 88.8079L281.487 47.7125L276.293 39.4551L227.996 80.301L242.981 88.8079Z" fill="#3F3D56"/>
<path d="M234.386 63.8387C241.846 63.8387 247.893 57.7913 247.893 50.3315C247.893 42.8716 241.846 36.8242 234.386 36.8242C226.926 36.8242 220.879 42.8716 220.879 50.3315C220.879 57.7913 226.926 63.8387 234.386 63.8387Z" fill="#2F2E41"/>
<path d="M235.473 42.7012C238.379 39.7538 241.896 37.4793 245.777 36.0379C248.268 35.1151 250.979 34.545 253.583 35.0691C256.187 35.5931 258.65 37.3946 259.376 39.9496C259.97 42.0388 259.357 44.2883 258.435 46.255C257.513 48.2218 256.282 50.0455 255.537 52.0856C254.776 54.1672 254.547 56.4059 254.871 58.5984C255.195 60.7908 256.061 62.8677 257.392 64.6404C258.722 66.4131 260.474 67.8255 262.488 68.7494C264.503 69.6734 266.716 70.0795 268.927 69.9311C266.369 70.2741 264.01 71.4765 261.509 72.1165C259.008 72.7565 256.056 72.7131 254.198 70.9214C252.231 69.0258 252.192 65.9436 252.287 63.2139C252.429 59.1561 252.57 55.0983 252.711 51.0405C252.783 48.9711 252.845 46.8354 252.098 44.9039C251.352 42.9724 249.579 41.281 247.508 41.2986C245.939 41.3119 244.55 42.2626 243.291 43.2001C242.033 44.1377 240.701 45.138 239.138 45.2774C237.574 45.4169 235.79 44.2601 235.907 42.6951L235.473 42.7012Z" fill="#2F2E41"/>
<path d="M183.082 141.026C181.786 141.386 180.402 141.259 179.193 140.667C177.984 140.075 177.035 139.06 176.524 137.815C176.014 136.57 175.978 135.18 176.423 133.91C176.868 132.64 177.764 131.578 178.94 130.924L190.609 117.686L200.479 119.818L186.598 133.414C186.939 134.137 187.117 134.926 187.121 135.726C187.124 136.525 186.952 137.315 186.617 138.041C186.282 138.767 185.792 139.41 185.181 139.926C184.57 140.442 183.854 140.817 183.082 141.026Z" fill="#EBFBE5"/>
<path d="M221.472 93.6312L192.389 130.138L183.523 126.068L217.708 72.8477L221.472 93.6312Z" fill="#3F3D56"/>
<path d="M198.267 203.869L191.336 203.76L192.17 227.385H198.266L198.267 203.869Z" fill="#EBFBE5"/>
<path d="M199.823 225.393L187.816 225.393H187.816C185.786 225.393 183.84 226.199 182.405 227.634C180.97 229.069 180.164 231.015 180.164 233.044V233.293L199.823 233.294L199.823 225.393Z" fill="#2F2E41"/>
<path d="M244.162 197.602L236.59 202.463L251.736 220.684L256.866 217.39L244.162 197.602Z" fill="#EBFBE5"/>
<path d="M257.098 214.875L246.994 221.362L246.994 221.362C245.286 222.458 244.084 224.188 243.652 226.171C243.22 228.154 243.593 230.227 244.689 231.935L244.824 232.144L261.366 221.523L257.098 214.875Z" fill="#2F2E41"/>
<path d="M246.856 125.461C246.856 125.461 230.033 69.5833 224.626 68.8282C219.219 68.0731 210.508 83.1658 210.508 83.1658C199.213 97.5766 187.566 144.256 187.566 144.256C187.566 144.256 206.982 145.471 221.174 153.022C235.367 160.573 252.116 152.64 252.116 152.64L246.856 125.461Z" fill="#3F3D56"/>
<path opacity="0.1" d="M246.856 125.461C246.856 125.461 230.033 69.583 224.626 68.8279C219.219 68.0728 212.72 83.3187 212.72 83.3187C207.092 106.581 187.566 144.256 187.566 144.256C187.566 144.256 206.982 145.471 221.174 153.022C235.367 160.573 252.116 152.64 252.116 152.64L246.856 125.461Z" fill="black"/>
<path d="M233.057 108.743V136.821L236.361 177.495L252.87 208.261L244.991 213.889L222.479 184.623L213.575 155.564L199.592 219.892L189.086 219.142L196.382 129.952L210.227 104.848L233.057 108.743Z" fill="#2F2E41"/>
<path d="M216.093 81.585C210.84 86.8378 215.718 92.4658 215.718 92.4658L209.715 105.973L233.353 112.351L241.613 75.4398L235.985 69.4366C224.729 69.0614 224.723 68.8281 224.723 68.8281C222.751 70.7581 216.093 81.585 216.093 81.585Z" fill="#3EA570"/>
<path d="M242.565 71.616C241.492 70.8235 240.271 70.252 238.975 69.9344C237.679 69.6168 236.333 69.5595 235.015 69.7659C233.697 69.9722 232.432 70.4381 231.295 71.1365C230.158 71.8349 229.171 72.752 228.391 73.8346C222.449 82.1086 216.954 95.4691 224.525 112.132C236.681 138.888 247.259 152.584 251.56 152.583C251.748 152.584 251.934 152.555 252.113 152.496C254.76 151.598 258.587 147.119 259.28 143.171C259.528 141.758 259.469 139.79 257.779 138.439C252.926 134.557 244.213 122.47 241.495 106.56C239.993 97.7696 242.906 89.762 245.614 84.5925C246.758 82.4535 247.092 79.9739 246.556 77.6083C246.02 75.2426 244.65 73.1493 242.696 71.7122L242.565 71.616Z" fill="#3F3D56"/>
<path d="M235.079 62.5117C239.898 59.8777 241.668 53.8364 239.034 49.0181C236.401 44.1997 230.359 42.4289 225.541 45.0628C220.722 47.6968 218.952 53.7381 221.586 58.5565C224.22 63.3748 230.261 65.1456 235.079 62.5117Z" fill="#EBFBE5"/>
<path d="M216.328 53.0357H230.685L230.833 50.9744L231.569 53.0357H233.78L234.071 48.9503L235.53 53.0357H239.808V52.8333C239.805 49.9891 238.673 47.2623 236.662 45.2511C234.651 43.24 231.924 42.1087 229.08 42.1055H227.056C224.212 42.1087 221.485 43.24 219.474 45.2511C217.463 47.2623 216.331 49.9891 216.328 52.8333V53.0357Z" fill="#2F2E41"/>
<path d="M237.637 60.445L243.764 58.457V43.5781H232.191L232.478 43.8642C236.464 47.8454 240.898 61.9703 237.637 60.445Z" fill="#2F2E41"/>
</g>
<defs>
<clipPath id="clip0_2166_15146">
<rect width="306.245" height="233" fill="white" transform="translate(0.96875 0.804688)"/>
</clipPath>
</defs>
</svg>
